<?xml version="1.0" encoding="utf-8"?>
<!-- Generator: Adobe Illustrator 23.0.0, SVG Export Plug-In . SVG Version: 6.00 Build 0)  -->
<svg version="1.1" id="Layer_1" xmlns="http://www.w3.org/2000/svg" xmlns:xlink="http://www.w3.org/1999/xlink" x="0px" y="0px"
	 viewBox="0 0 442.54 442.54" style="enable-background:new 0 0 442.54 442.54;" xml:space="preserve">
<g>
	<g>
		<g>
			<path d="M123.95,316.99V173.63c-8.72,4.86-25.37,9.6-34.9,10.74v-26.46c16.33-3.41,34.02-13.52,45.25-25.23h24.95v184.31H123.95z
				"/>
		</g>
		<g>
			<path d="M194.71,264.39c0-24.34,16.79-38.92,31.18-45.07c-14.78-8.44-23.67-20.07-23.67-38.62c0-30.27,21.89-50.95,62.08-50.95
				c36.73,0,60.35,19.9,60.35,50.48c0,20.68-10.82,31.89-24.17,37.36c14.64,5.17,30.93,21.26,30.93,45.66
				c0,36.98-29.27,57.1-69.94,57.1C224.57,320.35,194.71,300.03,194.71,264.39z M296.55,262.86c0-19.97-13.35-29.69-33.43-29.69
				c-22.37,0-33.32,12.37-33.32,29.49c0,17.79,12.99,30.25,33.83,30.25C282.8,292.91,296.55,283.3,296.55,262.86z M235.54,181.62
				c0,13.49,9.25,23.43,28.3,23.43c18.27,0,27.51-7.73,27.51-23.1c0-14.67-9.53-24.97-27.88-24.97
				C244.43,156.99,235.54,166.23,235.54,181.62z"/>
		</g>
	</g>
	<g>
		<g>
			<g>
				<rect x="380.1" y="63.06" width="32.42" height="107.39"/>
			</g>
		</g>
		<g>
			<g>
				<rect x="342.61" y="100.55" width="107.39" height="32.42"/>
			</g>
		</g>
	</g>
	<g>
		<path d="M221.27,442.54C99.26,442.54,0,343.28,0,221.27S99.26,0,221.27,0c47.42,0,92.63,14.78,130.75,42.75l-22.05,30.06
			c-31.68-23.24-69.27-35.53-108.7-35.53c-101.45,0-183.99,82.54-183.99,183.99s82.54,183.99,183.99,183.99
			s183.99-82.54,183.99-183.99c0-5.73-0.27-11.5-0.79-17.16l37.13-3.43c0.63,6.8,0.95,13.72,0.95,20.6
			C442.54,343.28,343.28,442.54,221.27,442.54z"/>
	</g>
</g>
</svg>
