<?xml version="1.0" encoding="utf-8"?>
<!-- Generator: Adobe Illustrator 22.0.0, SVG Export Plug-In . SVG Version: 6.00 Build 0)  -->
<svg version="1.1" id="Calque_1" xmlns="http://www.w3.org/2000/svg" xmlns:xlink="http://www.w3.org/1999/xlink" x="0px" y="0px"
	 viewBox="0 0 400 400" style="enable-background:new 0 0 400 400;" xml:space="preserve">
<style type="text/css">
	.st0{display:none;fill:#FF0054;stroke:#FFFFFF;stroke-width:0.5;stroke-miterlimit:10;}
	.st1{fill:#562002;}
	.st2{fill:#FFBE9D;}
	.st3{fill:#263238;}
	.st4{fill:#EB996E;}
	.st5{fill:#F0F2F2;}
	.st6{fill:#FF0054;}
	.st7{fill:#FF0054;stroke:#FFFFFF;stroke-width:3;stroke-miterlimit:10;}
	.st8{fill:#FFFFFF;}
	.st9{display:none;fill:#FFFFFF;}
</style>
<rect class="st0" width="400" height="400"/>
<g id="freepik--Character--inject-2">
	<path class="st1" d="M107.3,222.7c-3.1,2.2-3.2,6.7-2.5,10.4c0.7,3.7,1.9,7.6,0.6,11.1c-1,2.2-2.4,4.2-3.9,6
		c-1.4,2-2.4,4.5-1.5,6.7c1.5,4.2,8.1,4.6,9.8,8.7c0.9,2.4-0.1,5-1.4,7.2c-1.3,2.2-2.9,4.4-3.1,6.9c-0.1,3.8,2.9,6.9,6.7,7
		c0.2,0,0.5,0,0.7,0c2.8-0.4,4.9-2.5,7.2-4s5.6-2.4,7.8-0.6c2.5,2.1,1.5,6.1,1.5,9.3c0,3.6,1.9,7,5,8.8c3.3,1.7,7.3,0.6,9.3-2.4
		c0.9-1.5,1.2-3.7,2.9-4.3c2-0.8,4,1.3,6.2,1.9c2.5,0.4,5-0.9,6-3.2c1-2.3,1.2-4.8,0.6-7.2c-1.7-9.6-8.9-17.1-13.6-25.7
		c-3.8-6.9-6.1-14.5-6.7-22.3c-0.4-4.8,0-9.7-0.5-14.5c-0.2-4.9-1.8-9.6-4.6-13.6c-3-3.8-7.9-6.4-12.7-5.3"/>
	<path class="st1" d="M169.8,109.6c-14.7-0.4-28.9,11.1-31.4,25.6c-1.3,7.5,0.1,15.7-3.4,22.5c-4.6,9-16.6,13.2-19.3,22.9
		c-2.3,8.2,3.1,17,0.8,25.1c-1.7,5.9-6.9,10-9.5,15.6c-2.5,5.5-2.1,11.9,1.2,16.9c3.4,5,9.3,7.7,15.3,7c3.7-0.5,7.1-2.4,10.7-3.6
		c7.6-2.5,16.1-1.6,24.1-0.5c8,1.1,16.3,2.4,24.2,0.6c7.9-1.9,15.5-7.6,16.7-15.8c0.8-5.2-1.2-10.4-2.8-15.4
		c-10.6-33.2-5.8-69.2-13.2-103.3"/>
	<path class="st1" d="M209.1,125.8c1.3,8.7,3.7,17.4,7.4,22.8c3.1,4.4,9,6.9,9.9,12.1c0.7,4.4-1.9,8.8-1.5,13.3
		c0.7,7,8.4,11.3,10.6,18c1.8,5.6-0.7,11.9-4.9,15.9c-4.3,4-9.9,6.2-15.6,7.7c-8.1,2.2-17.9,2.8-23.7-3.2c-4-4.1-4.9-10.3-5.4-16
		c-1.4-15.3-1.3-30.7-1.3-46.1"/>
	<path class="st2" d="M156.2,140.5c-1.8-14.4,8.4-27.6,22.9-29.4c0.3,0,0.6-0.1,0.8-0.1c14-1.3,26.5,9.2,28.6,23.1
		c1.9,12.2,3.4,24.6,3.4,29.1c-0.2,13.5-8.1,18.8-11.3,20.4c-1.2,0.4-2.3,0.7-3.6,0.9l0,0c0,0,0,0.1,0,0.1l3.1,15.5
		c1.4,10.2-4.3,19.2-14.5,20.7c-10.2,1.5-18.1-6.3-19.7-16.5L156.2,140.5z"/>
	<path class="st3" d="M205.7,140c-0.2,0.3-2-0.6-4.3-0.3c-2.3,0.4-3.8,1.7-4.1,1.5c-0.3-0.2,0-0.6,0.7-1.3c0.9-0.8,2-1.4,3.2-1.5
		c1.2-0.2,2.4,0,3.5,0.6C205.5,139.4,205.9,139.9,205.7,140z"/>
	<path class="st3" d="M185.1,144c-0.2,0.3-2-0.6-4.3-0.3c-2.3,0.3-3.8,1.7-4.1,1.5c-0.3-0.2,0-0.6,0.7-1.3c0.9-0.8,2-1.4,3.2-1.5
		c1.2-0.2,2.4,0,3.5,0.6C184.9,143.4,185.3,143.9,185.1,144z"/>
	<path class="st3" d="M193.7,157.2c1.1-0.6,2.4-1,3.6-1.2c0.6-0.1,1.1-0.3,1.2-0.7c0-0.6-0.3-1.2-0.6-1.7l-2.4-4.2
		c-3.3-6-5.8-10.9-5.6-11.1c0.2-0.1,3.1,4.6,6.5,10.6l2.3,4.2c0.5,0.7,0.7,1.4,0.6,2.2c-0.1,0.4-0.4,0.8-0.8,1
		c-0.3,0.1-0.6,0.2-1,0.3C196.2,157,194.9,157.2,193.7,157.2z"/>
	<path class="st4" d="M196.9,184.4c0,0-8.7,2-20.7-3.1c0,0,5.2,11.2,21.5,7.2L196.9,184.4z"/>
	<path class="st4" d="M193.5,162.9c-1-1-2.5-1.4-3.9-1c-1,0.2-1.9,0.9-2.4,1.8c-0.5,0.9-0.4,2,0.2,2.8c0.9,0.7,2.1,0.8,3.1,0.3
		c1-0.5,1.9-1.3,2.7-2.2c0.2-0.2,0.4-0.5,0.6-0.8c0.2-0.3,0.2-0.7,0-0.9"/>
	<path class="st3" d="M187.2,159.8c0.4,0,0.7,2.4,3.1,3.9c2.3,1.5,5,0.8,5,1.1c0.1,0.4-0.5,0.6-1.6,0.8c-1.4,0.2-2.9-0.1-4.2-0.8
		c-1.2-0.8-2.1-2-2.4-3.3C186.8,160.5,187,159.9,187.2,159.8z"/>
	<path class="st1" d="M184,137.5c-0.1,0.7-2.5,0.7-5.1,1.4c-2.6,0.7-4.7,1.8-5.1,1.3c-0.2-0.2,0.1-0.9,0.9-1.5c2.1-1.8,5-2.6,7.8-2
		C183.4,136.8,184,137.2,184,137.5z"/>
	<path class="st1" d="M203.8,133.7c-0.3,0.6-2,0.3-3.9,0.5c-1.9,0.2-3.4,0.9-3.9,0.4c-0.2-0.2,0-0.8,0.6-1.4
		c0.9-0.7,1.9-1.2,3.1-1.3c1.1-0.1,2.3,0.1,3.2,0.6C203.7,132.9,204,133.4,203.8,133.7z"/>
	<path class="st3" d="M199.3,142.8c-0.2,1.1,0.6,2.2,1.7,2.4c1.1,0.3,2.2-0.4,2.5-1.5c0,0,0,0,0,0c0.2-1.1-0.6-2.2-1.7-2.4
		C200.7,141.1,199.6,141.8,199.3,142.8z"/>
	<path class="st3" d="M178.8,146.9c-0.2,1.1,0.6,2.2,1.7,2.4c1.1,0.3,2.2-0.4,2.4-1.5c0,0,0,0,0,0c0.2-1.1-0.6-2.2-1.7-2.4
		C180.2,145.1,179.1,145.8,178.8,146.9C178.8,146.9,178.8,146.9,178.8,146.9z"/>
	<path class="st2" d="M157.6,204.7l41.5-8.5l9-0.3l-0.6,27.5c0,0-22.8,7.1-23.7,7.5c-0.8,0.4-15.8,0-15.8,0L157.6,204.7z"/>
	<path class="st1" d="M174,117.5c-5.1,6.1-6.5,14.5-3.7,21.9c1.9,4.9,5.7,9.4,5.4,14.6c-0.4,6.5-7,11.6-6.7,18.1
		c0.4,7.3,9.8,11.9,9.8,19.2c0,7.3-4.5,10.3-13.2,11.9c-5.6,1-8.7-5.9-11.4-10.8c-2.8-5-3.7-10.7-4.2-16.3
		c-0.9-9.4-1.1-18.8-0.4-28.2c0.5-7.6,1.7-15.3,5.6-21.9c4.1-6.7,10.9-11.4,18.6-13"/>
	<path class="st1" d="M211.1,131.1c-2.8,4.3-11.7,1.6-17-1.3c-5.8,3.7-13.5,2.2-17.4-3.5c-3.1,3.9-9.3,2.6-11.6-1.8
		s-1-10.5,2.1-14.3c3.2-3.6,7.5-6,12.2-6.6c11.1-2.1,22.4,2.5,28.7,11.8C211.1,119.8,212.9,125.8,211.1,131.1"/>
	<path class="st2" d="M42.6,232.9l-9.1-18.5l-4.3-9.3c-1.1-2.3,0.5-3.4,1.8-2c0.5,0.6,6.3,7.8,6.3,7.8l-6.1-13
		c-1.9-4.1,0.8-4.2,1.9-2.8s8.4,13.5,8.4,13.5c-7.8-16.2-6.6-17.9-5.4-18.4c1.2-0.4,8.2,14.3,8.2,14.3c0.7-2,1.8-3.8,3.3-5.3
		c3.6-3.6,10.9-2.1,11.6-0.2c0.7,1.9-1.7,2.9-1.7,2.9c-3.1-1.5-6.9-0.3-8.4,2.9c-0.7,1.4-0.8,3.1-0.4,4.6c1.5,4.8,7.6,3,7.6-0.7
		c0.2-8,3.4-6,3.4-6l0.5,17.4l4.4,8l34.6,45.7l10.2-16.4l26.1,25.6L117.9,303c-8.9,10.2-24.4,11.2-34.5,2.3c-2.2-1.9-4-4.2-5.4-6.7
		L42.6,232.9z"/>
	<path class="st5" d="M297.3,200.1c-32.9-1.9-86.1-6.1-90.2-4.7c0,0,3.7,24.5-18.7,28c-22.4,3.5-30.6-18.7-30.6-18.7
		s-22.9,6.5-31.4,20.6c-8.5,14.1-18.9,29.9-18.9,29.9l30.8,30.3l8.6-9.5l6.2,20.7l-4,20.3l77.5,3.6l5.4-89.1l65.5-5.4L297.3,200.1z"
		/>
	<path class="st3" d="M138.1,246.7c0.2,0,3.7,10.8,7.7,24.3c4,13.5,7.1,24.5,6.9,24.6c-0.2,0.1-3.7-10.8-7.7-24.3
		C140.9,257.8,137.8,246.8,138.1,246.7z"/>
	<path class="st3" d="M246.7,212.1c0.2,0.2-5,3.3-9.3,9.2c-4.3,5.9-5.9,11.6-6.2,11.5c0.1-1.3,0.5-2.6,1-3.8c1.1-3,2.6-5.7,4.5-8.2
		c1.9-2.5,4.2-4.7,6.7-6.6C244.3,213.3,245.5,212.6,246.7,212.1z"/>
	<path class="st1" d="M177.6,187.6c2.9,4,1.8,9.6-0.1,14.1s-4.6,8.9-4.6,13.9c0,4.6,2.4,8.9,4.2,13.1c1.8,4.3,3.1,9.3,0.9,13.4
		c-2.4,4.4-8.2,6.5-9.8,11.3c-2,5.7,3.1,12.4,0.1,17.6c-2,3.6-7.2,4.6-10.8,2.6c-3.5-2.2-5.8-6-6.2-10.1c-0.3-4.1,0.1-8.3,1.2-12.2
		c1.3-5.8,2.6-12.4-0.9-17.2c-2-2.8-5.6-4.6-6.7-8c-1.3-3.9,1.3-8.1,4.2-11c2.9-2.9,6.5-5.6,7.6-9.6c0.7-3.1,0.5-6.3-0.5-9.3
		c-1-3-1.5-6.2-1.5-9.3c0.2-3.2,2-6.5,5-7.4c4.3-1.3,8.3,2.3,11.3,5.6"/>
</g>
<path id="munchy_6_" class="st6" d="M205.1,258.9c1-0.2,2,0.2,2.9,1.3c0.3,0.5,0.6,1,0.8,1.5c0.3,1,0.6,2,0.8,3
	c0.2,1,0.2,2.1,0.2,3.1c0,0.3,0,0.5-0.1,0.8c0,0.3,0,0.6,0.2,0.8c0.1,0.2,0.2,0.3,0.3,0.4c0.4,0.3,1,0.5,1.9,0.7
	c0.7,0.2,1.5,0.2,2.3,0c0.4-0.1,0.6-0.4,0.7-0.7c0.4-1.1,0.4-2.6,0.1-4.5c-0.2-1.5-0.6-3-1-4.4c-0.5-1.5-1.1-3-2-4.4
	c-0.8-1.4-2-2.5-3.5-3.3c-1.4-0.7-2.6-1-3.8-0.9c-1.1,0.1-2.2,0.5-3.1,1.2c-0.8,0.6-1.5,1.4-2,2.4c-0.3-0.3-0.9-0.8-1.9-1.3
	c-1.4-0.7-2.6-1-3.8-0.8c-1.1,0-2,0.6-2.8,1.6l0-0.1c0.1-1-0.1-1.7-0.5-1.9c-0.5-0.3-1.1-0.5-1.7-0.4c-0.6,0-1.1,0.1-1.6,0.2
	c-0.6,0.1-1.1,0.3-1.6,0.6c-0.4,0.3-0.7,0.6-0.9,1.1c-0.3,0.6-0.6,1.5-0.7,2.7c-0.1,1.2-0.1,2.3-0.1,3.5c0.1,1.1,0.2,2.6,0.4,4.4
	c0.2,1.5,0.4,3.1,0.9,4.6c0.2,0.6,0.4,1.3,0.7,1.9c0.2,0.6,0.7,1.1,1.3,1.4c0.5,0.2,1,0.3,1.5,0.3c0.7,0.1,1.4,0,2.1-0.1
	c0.7-0.1,1.3-0.3,1.9-0.7c0.5-0.3,0.8-0.9,0.8-1.4c0-0.3-0.1-0.7-0.2-1c-0.1-0.3-0.2-0.7-0.3-1c-0.7-2.4-1.1-4.3-1-5.5
	c0.3-2.1,0.9-3.2,1.9-3.4s2,0.2,2.9,1.3c0.3,0.5,0.6,1,0.8,1.5c0.3,0.9,0.6,2.2,0.7,3.9c0.1,1.7,0.2,2.7,0.2,3
	c0,0.3,0.1,0.6,0.2,0.8c0.1,0.2,0.2,0.3,0.3,0.4c0.4,0.3,1,0.5,1.9,0.7c0.8,0.2,1.5,0.2,2.3,0c0.3-0.1,0.5-0.6,0.6-1.3
	c0-1.3,0-2.6-0.1-3.9c-0.1-1.4-0.2-2.8-0.5-4.2c-0.2-1-0.3-1.8-0.1-2.4C203.7,259.4,204.2,259,205.1,258.9L205.1,258.9L205.1,258.9z
	"/>
<image style="overflow:visible;" width="512" height="512" xlink:href="DESIGN_JOUHAINA/Graphique/2020/MUNCHY_2/stuff/b1.png"  transform="matrix(0.1341 3.464990e-02 -3.464990e-02 0.1341 240.1432 145.6109)">
</image>
<image style="overflow:visible;" width="860" height="616" xlink:href="DESIGN_JOUHAINA/Graphique/2020/MUNCHY_2/stuff/b3.png"  transform="matrix(7.317419e-02 2.140158e-02 -2.140158e-02 7.317419e-02 272.4583 147.3311)">
</image>
<image style="overflow:visible;" width="512" height="512" xlink:href="DESIGN_JOUHAINA/Graphique/2020/MUNCHY_2/stuff/b4.png"  transform="matrix(0.1127 0 0 0.1127 298.8926 156.4798)">
</image>
<path class="st7" d="M344.2,188.7H239.7c-5.1,0-9.4,3.3-9.8,7.5l-3,126.6c-0.4,4.7-0.9,5.7,3.3,7.8h119.8c2.6,0,4.7-1.7,4.8-3.8
	c0-1.7-0.1-3.3-0.4-6.1c0-0.1,0-0.2,0-0.3L354,196.2C353.6,192,349.4,188.7,344.2,188.7z"/>
<path class="st8" d="M307.2,204.1h-32.7c-2.3,0-4.1-1.8-4.1-4.1l0,0c0-2.3,1.8-4.1,4.1-4.1h32.7c2.3,0,4.1,1.8,4.1,4.1l0,0
	C311.3,202.2,309.4,204.1,307.2,204.1z"/>
<g>
	<path class="st2" d="M354.4,249.3c-1.1-1.7-1.5-3.7-1.3-5.8c0.3-2,0.3-4,0-6c-0.1-0.8-0.4-1.5-0.9-2c-0.5-0.6-1.3-0.9-2-0.7
		c-0.8,0.3-1.4,0.9-1.5,1.8c-0.4,2.8-0.6,5.7-0.7,8.5L354.4,249.3z"/>
	<path class="st4" d="M354.4,249.3c0,0-0.5-0.3-1.7-1c-1.2-0.6-2.9-1.6-5-2.9l-0.2,0l0-0.1c0-1.6,0.1-3.2,0.2-4.7
		c0.2-0.8,0.2-1.7,0.3-2.6c0.1-0.5,0.1-0.9,0.3-1.4c0.1-0.5,0.4-1,0.7-1.4c0.5-0.6,1.2-0.8,2-0.7c0.7,0.1,1.3,0.5,1.7,1
		c0.7,1,1,2.1,1,3.3c0.1,2.2-0.3,4.1-0.3,5.7c-0.1,1.7,0.2,3.4,1,4.9l-0.3-0.2c-0.2-0.3-0.4-0.6-0.6-0.9c-0.5-1.2-0.8-2.5-0.7-3.8
		c0-1.6,0.3-3.5,0.1-5.6c0-1-0.3-2-0.9-2.9c-0.4-0.7-1.3-1-2.1-0.6c-0.2,0.1-0.3,0.2-0.4,0.3c-0.5,0.7-0.8,1.5-0.7,2.3l-0.3,2.6
		c-0.1,1.6-0.3,3.3-0.4,4.6l-0.1-0.2c1.9,1.2,3.3,2.3,4.5,3.2L354.4,249.3z"/>
	<path class="st2" d="M357.6,243.4c-3.6,2.8-7.4,5.5-10.7,8.6c-0.8,0.8-1.8,1.9-1.4,3c0.3,0.8,1,1.3,1.9,1.3c0.8,0,1.6-0.2,2.3-0.6
		c3.8-1.7,6.6-5,9.4-8c0.9-0.8,1.4-1.9,1.4-3.1c-0.3-1-1.4-1.6-2.4-1.3C357.8,243.2,357.7,243.3,357.6,243.4"/>
	<path class="st4" d="M357.6,243.4c0,0,0.5-0.6,1.6-0.3c0.7,0.2,1.2,0.7,1.4,1.4c0.1,0.9-0.2,1.9-0.8,2.5c-1.4,1.7-2.9,3.4-4.5,4.9
		c-1.9,2-4.3,3.5-6.9,4.5c-0.8,0.2-1.6,0.2-2.3-0.2c-0.8-0.4-1.2-1.2-1.2-2.1c0.1-0.7,0.5-1.4,1-2c0.4-0.5,0.9-0.9,1.4-1.3
		c1.9-1.6,3.7-3,5.2-4.1l3.6-2.6C356.6,243.9,357.1,243.6,357.6,243.4c-0.4,0.5-0.8,0.9-1.2,1.2c-0.8,0.7-2,1.6-3.5,2.8
		c-1.5,1.2-3.2,2.5-5,4.2c-0.9,0.8-2,1.7-2.1,2.8c0,0.5,0.3,1.1,0.8,1.3c0.6,0.3,1.2,0.3,1.8,0.1c2.5-0.9,4.7-2.4,6.6-4.3
		c1.8-1.7,3.3-3.4,4.5-4.7c0.5-0.6,0.8-1.3,0.8-2.1c-0.1-0.6-0.5-1-1.1-1.2C358.7,243.2,358.1,243.2,357.6,243.4z"/>
	<path class="st2" d="M358.7,249c-3.4,3.1-7,5.9-10.1,9.3c-0.8,0.8-1.7,2-1.2,3.1c0.4,0.7,1.1,1.2,2,1.2c0.8-0.1,1.6-0.3,2.3-0.7
		c3.7-2,6.3-5.4,8.8-8.6c0.9-0.8,1.3-2,1.2-3.2c-0.4-1-1.5-1.5-2.5-1.2C358.9,248.8,358.8,248.8,358.7,249"/>
	<path class="st4" d="M358.7,249c0,0,0.4-0.6,1.6-0.4c0.7,0.1,1.3,0.7,1.5,1.4c0.2,0.9,0,1.9-0.6,2.6c-1.3,1.8-2.6,3.6-4.1,5.2
		c-1.8,2.1-4,3.8-6.6,4.9c-0.8,0.3-1.6,0.3-2.4,0c-0.8-0.3-1.3-1.1-1.3-2c0.1-0.7,0.4-1.5,0.9-2c0.4-0.5,0.9-1,1.3-1.4
		c1.8-1.8,3.5-3.2,4.9-4.4c1.4-1.2,2.5-2.1,3.4-2.8C357.9,249.6,358.3,249.2,358.7,249c-0.2,0.5-0.6,0.9-1,1.2
		c-0.8,0.7-1.9,1.8-3.3,3c-1.4,1.3-3,2.8-4.7,4.5c-0.8,0.9-1.9,1.8-1.9,3c0,0.6,0.3,1,0.9,1.2c0.6,0.2,1.2,0.2,1.8,0
		c2.4-1.1,4.5-2.7,6.3-4.7c1.7-1.8,3.1-3.6,4.2-5c0.5-0.6,0.7-1.4,0.6-2.2c-0.2-0.6-0.6-1-1.2-1.2
		C359.8,248.7,359.2,248.7,358.7,249z"/>
	<path class="st2" d="M359.2,256.3c-2.6,2.4-5.4,4.5-7.8,7.1c-0.6,0.6-1.3,1.5-0.9,2.3c0.3,0.6,0.9,0.9,1.5,0.9
		c0.6,0,1.2-0.2,1.8-0.5c2.7-1.7,5-4,6.8-6.6c0.7-0.6,1-1.5,0.9-2.5c-0.3-0.8-1.2-1.1-2-0.8C359.4,256.2,359.3,256.2,359.2,256.3"/>
	<path class="st4" d="M359.2,256.3c0,0,0.3-0.5,1.2-0.3c0.6,0.1,1,0.5,1.2,1c0.1,0.7,0,1.5-0.5,2c-1,1.4-2,2.7-3.2,4
		c-1.4,1.6-3.1,2.9-5,3.8c-0.6,0.2-1.3,0.2-1.9,0c-0.7-0.3-1.1-0.9-1.1-1.6c0.2-1.1,0.8-2,1.7-2.7c1.3-1.3,2.7-2.5,3.7-3.4
		C356.6,258.1,357.9,257.1,359.2,256.3c-1.1,1.2-2.2,2.3-3.4,3.3c-1.1,1-2.3,2.1-3.6,3.5c-0.6,0.7-1.4,1.4-1.5,2.2
		c0,0.8,1,1.2,1.9,0.9c1.8-0.8,3.5-2,4.8-3.5c1.3-1.3,2.3-2.7,3.2-3.8c0.4-0.4,0.6-1,0.5-1.6c-0.1-0.4-0.4-0.7-0.8-0.9
		C359.9,256.1,359.6,256.1,359.2,256.3z"/>
</g>
<path id="munchy_4_" class="st9" d="M260.4,250.8c0.7-0.1,1.3,0.3,1.8,1c0.2,0.3,0.3,0.7,0.4,1c0.2,0.6,0.3,1.3,0.3,1.9
	c0,0.6,0,1.3-0.1,2c0,0.2-0.1,0.3-0.1,0.5c0,0.2,0,0.3,0.1,0.5c0,0.1,0.1,0.2,0.2,0.3c0.2,0.2,0.6,0.4,1.2,0.6
	c0.5,0.2,1,0.2,1.5,0.2c0.3,0,0.4-0.2,0.5-0.4c0.3-0.7,0.5-1.6,0.4-2.8c0-1-0.1-1.9-0.3-2.8c-0.2-1-0.5-2-0.9-2.9
	c-0.4-0.9-1.1-1.7-2-2.3c-0.8-0.6-1.6-0.8-2.4-0.8c-0.7,0-1.4,0.2-2.1,0.6c-0.6,0.3-1.1,0.8-1.4,1.4c-0.2-0.2-0.6-0.6-1.1-0.9
	c-0.8-0.6-1.7-0.8-2.4-0.8c-0.7,0-1.4,0.2-1.9,0.8v-0.1c0.1-0.6,0.1-1.1-0.2-1.3c-0.3-0.3-0.7-0.4-1.1-0.4c-0.3,0-0.7,0-1.1,0
	c-0.4,0-0.7,0.1-1.1,0.3c-0.3,0.1-0.5,0.3-0.7,0.6c-0.3,0.3-0.5,0.9-0.6,1.7c-0.2,0.7-0.3,1.4-0.3,2.2c0,0.7,0,1.7,0,2.8
	c0,1,0.1,2,0.2,2.9c0.1,0.4,0.2,0.8,0.3,1.2c0.1,0.4,0.4,0.7,0.7,0.9c0.3,0.2,0.6,0.3,0.9,0.3c0.5,0.1,0.9,0.1,1.4,0.1
	c0.4,0,0.8-0.1,1.3-0.3c0.3-0.1,0.6-0.5,0.6-0.8c0-0.2,0-0.4-0.1-0.7c0-0.2-0.1-0.4-0.1-0.6c-0.3-1.6-0.4-2.8-0.3-3.6
	c0.3-1.3,0.8-2,1.5-2c0.7-0.1,1.3,0.3,1.8,1c0.2,0.3,0.3,0.7,0.4,1c0.1,0.6,0.2,1.4,0.2,2.5c0,1.1,0,1.7-0.1,1.9
	c0,0.2,0,0.3,0.1,0.5c0,0.1,0.1,0.2,0.2,0.3c0.2,0.2,0.6,0.4,1.2,0.6c0.5,0.2,1,0.2,1.5,0.2c0.2,0,0.4-0.3,0.5-0.8
	c0.1-0.8,0.2-1.7,0.2-2.5c0-0.9,0-1.8,0-2.7c-0.1-0.6,0-1.1,0.1-1.5C259.4,251,259.8,250.8,260.4,250.8L260.4,250.8L260.4,250.8z
	 M274.6,257.5c-0.2,0.6-0.1,1.1,0.1,1.3c0.3,0.3,0.6,0.4,1,0.4c0.3,0,0.7,0,1.1,0c0.4,0,0.7-0.1,1.1-0.3c0.3-0.1,0.6-0.3,0.7-0.6
	c0.2-0.3,0.4-0.6,0.6-0.9c0.1-0.3,0.3-1,0.4-2.2c0.2-1.3,0.3-2.5,0.3-3.7c0-1,0-2,0-2.9c0-0.4-0.1-0.8-0.3-1.2
	c-0.1-0.4-0.3-0.7-0.6-0.9c-0.3-0.2-0.6-0.3-0.9-0.3c-0.5-0.1-0.9-0.1-1.4-0.1c-0.4,0-0.9,0.1-1.3,0.3c-0.3,0.1-0.6,0.5-0.6,0.8
	c0,0.2,0,0.4,0,0.7c0,0.2,0.1,0.4,0.1,0.6c0.2,1.6,0.2,2.9-0.1,3.9c-0.3,1.1-0.8,1.6-1.4,1.7c-0.7,0.1-1.2-0.3-1.7-1
	c-0.2-0.3-0.3-0.7-0.3-1c-0.1-0.6-0.2-1.3-0.2-1.9c0-0.7,0.1-1.3,0.2-2c0-0.2,0.1-0.3,0.1-0.5c0-0.2,0-0.3,0-0.5
	c0-0.1-0.1-0.2-0.2-0.3c-0.2-0.2-0.6-0.4-1.1-0.6c-0.5-0.2-1-0.2-1.4-0.2c-0.3,0-0.4,0.2-0.6,0.4c-0.4,0.7-0.6,1.6-0.6,2.8
	c0,0.9,0,1.9,0.1,2.8c0.1,1,0.4,2,0.8,2.9c0.4,0.9,1,1.7,1.9,2.3c0.8,0.6,1.5,0.8,2.2,0.8C273.3,258.3,274.1,258,274.6,257.5
	L274.6,257.5z M286,247.3c0.1-0.6,0.1-1.1-0.2-1.3c-0.3-0.3-0.7-0.4-1.1-0.4c-0.3,0-0.7,0-1.1,0c-0.4,0-0.7,0.1-1.1,0.3
	c-0.3,0.1-0.5,0.3-0.7,0.6c-0.4,1-0.6,1.9-0.7,2.5c-0.1,0.7-0.1,1.3-0.1,1.8c0,0.5,0,1.4,0,2.5c0,1,0.1,2,0.3,2.9
	c0.1,0.4,0.2,0.8,0.3,1.2c0.1,0.4,0.4,0.7,0.7,0.9c0.3,0.2,0.6,0.3,1,0.3c0.5,0.1,0.9,0.1,1.4,0.1c0.4,0,0.8-0.1,1.3-0.3
	c0.3-0.1,0.6-0.5,0.6-0.8c0-0.2,0-0.4-0.1-0.7c0-0.2-0.1-0.4-0.1-0.6c-0.3-1.6-0.4-2.8-0.3-3.6c0.3-1.4,0.8-2.1,1.5-2.2
	c0.7-0.1,1.3,0.3,1.8,1.1c0.2,0.3,0.3,0.7,0.4,1c0.2,0.6,0.3,1.3,0.3,1.9c0,0.6,0,1.3-0.1,2c0,0.2-0.1,0.3-0.1,0.5
	c0,0.2,0,0.3,0.1,0.5c0,0.1,0.1,0.2,0.2,0.3c0.2,0.2,0.6,0.4,1.2,0.6c0.5,0.2,1,0.2,1.5,0.2c0.3,0,0.4-0.2,0.5-0.4
	c0.3-0.7,0.4-1.6,0.3-2.8c0-1-0.2-1.9-0.3-2.8c-0.2-1-0.5-2-1-2.9c-0.4-0.9-1.1-1.7-2-2.3c-0.8-0.6-1.6-0.8-2.4-0.7
	c-0.8,0.1-1.4,0.3-1.8,0.6L286,247.3z M303.5,245.1c-0.7,0-1.4,0-2.1,0.2c-0.9,0.1-1.7,0.4-2.5,0.7c-0.9,0.3-1.7,0.8-2.4,1.5
	c-1.4,1.3-1.9,3-1.5,4.9c0.3,1.3,0.8,2.5,1.6,3.5c0.4,0.6,0.9,1,1.5,1.4c0.6,0.4,1.1,0.7,1.7,0.9c0.8,0.3,1.6,0.5,2.4,0.6
	c0.6,0,1.3,0,1.9,0c0.7-0.1,1.3-0.3,1.9-0.6c0.3-0.1,0.5-0.3,0.7-0.4c0.4-0.3,0.8-0.6,1.2-1c0.4-0.4,0.5-0.9,0-1.3
	c-0.8-0.8-1.5-0.9-2.2-0.5c-0.6,0.4-1.4,0.7-2.1,0.8c-0.9,0.1-1.8,0-2.6-0.4c-0.8-0.3-1.4-0.9-1.7-1.7c-0.4-1.1-0.4-2,0-2.6
	c0.4-0.6,0.9-1.1,1.6-1.4c0.7-0.3,1.5-0.5,2.2-0.5c0.6,0,1.3,0,1.9,0.2c0.2,0.1,0.5,0.2,0.7,0.2c0.2,0.1,0.5,0.1,0.7,0.1
	s0.6-0.3,0.8-0.7c0.2-0.3,0.3-0.7,0.4-1.1c0.1-0.4,0.1-0.8,0.1-1.1c0-0.3-0.2-0.6-0.6-0.8c-0.4-0.3-0.9-0.4-1.4-0.5
	C304.9,245.2,304.2,245.1,303.5,245.1L303.5,245.1z M314.4,242.5c0.1-0.6,0-1.1-0.3-1.3c-0.3-0.3-0.7-0.4-1.1-0.4
	c-0.3,0-0.7,0-1.1,0c-0.4,0-0.7,0.1-1.1,0.3c-0.3,0.1-0.5,0.3-0.6,0.6c-0.3,0.5-0.4,1-0.5,1.6c-0.2,0.9-0.3,1.9-0.3,2.8
	c-0.1,1.2-0.1,2.4-0.1,3.7c0,1.3,0.1,2.5,0.2,3.7c0.1,1,0.3,2,0.5,2.9c0.1,0.4,0.3,0.8,0.4,1.2c0.2,0.4,0.4,0.7,0.8,0.9
	c0.3,0.2,0.6,0.3,1,0.3c0.5,0.1,0.9,0.1,1.4,0.1c0.4,0,0.8-0.1,1.2-0.3c0.3-0.1,0.6-0.5,0.5-0.8c0-0.2,0-0.5-0.1-0.7
	c-0.1-0.2-0.1-0.4-0.2-0.6c-0.4-1.6-0.6-2.8-0.6-3.6c0.2-1.4,0.6-2.2,1.3-2.3s1.3,0.3,1.9,1.3c0.2,0.3,0.4,0.7,0.5,1
	c0.2,0.6,0.3,1.3,0.5,1.9c0.1,0.6,0.1,1.3,0,2c0,0.2,0,0.3,0,0.5c0,0.2,0,0.3,0.1,0.5c0,0.1,0.1,0.2,0.2,0.3
	c0.2,0.2,0.6,0.4,1.2,0.6c0.5,0.2,1,0.2,1.5,0.2c0.2,0,0.4-0.2,0.5-0.4c0.3-0.7,0.3-1.6,0.1-2.8c-0.1-1-0.3-1.9-0.6-2.8
	c-0.3-1-0.7-2-1.2-2.9c-0.5-0.9-1.3-1.7-2.2-2.3c-0.8-0.6-1.9-0.8-2.9-0.8c-0.5,0-0.9,0-1.4,0.1
	C314.1,245.4,314.2,243.9,314.4,242.5L314.4,242.5L314.4,242.5z M326.6,246.4c-0.5,0-1,0.2-1.4,0.4c-0.6,0.2-1,0.6-1.4,1
	c-0.3,0.4-0.4,0.8-0.4,1.1c0,0.5,0.6,1.7,1.7,3.7s2,3.5,2.6,4.4c-0.7,1.4-1.4,2.3-2.1,3c-0.2,0.2-0.3,0.3-0.5,0.5
	c-0.2,0.1-0.3,0.3-0.4,0.5c-0.4,0.7-0.1,1.3,0.9,1.9c1,0.6,1.8,0.8,2.3,0.8c0.4,0,0.8-0.1,1.2-0.4c0.3-0.3,0.7-0.5,1-0.8
	c0.3-0.3,0.6-0.6,0.9-1c2.2-3.2,3.7-5.9,4.4-7.8c0.8-2,1.2-3.3,1.4-4c0.1-0.5,0.2-1.1,0.3-1.6c0-0.3-0.1-0.6-0.3-0.8
	c-0.3-0.3-0.6-0.6-0.8-0.7c-0.3-0.2-0.7-0.4-1-0.6c-0.3-0.2-0.6-0.3-0.8-0.2c-0.3,0-0.6,0.3-0.8,0.9c-0.7,1.7-1.6,3.8-2.7,6.4
	l-2.9-5.9C327.2,246.7,326.9,246.4,326.6,246.4z"/>
<path id="munchy_3_" class="st8" d="M304.3,258.5c2.1-0.4,4,0.4,5.9,2.7c0.7,1,1.2,2,1.6,3.1c0.7,2,1.2,4,1.6,6
	c0.4,2.1,0.5,4.2,0.3,6.3c0,0.5-0.1,1.1-0.1,1.7c0,0.6,0.1,1.1,0.4,1.6c0.1,0.3,0.4,0.6,0.7,0.8c0.7,0.6,2,1.1,3.9,1.4
	c1.5,0.4,3.1,0.4,4.6,0c0.7-0.2,1.3-0.8,1.5-1.5c0.8-2.2,0.8-5.2,0.2-9.1c-0.5-3-1.1-6-1.9-9c-0.9-3.1-2.3-6.1-4-8.9
	c-1.7-2.8-4.1-5.2-7-6.7c-2.8-1.5-5.4-2.1-7.7-1.9c-2.3,0.2-4.4,1-6.2,2.4c-1.7,1.2-3.1,2.9-4,4.8c-0.6-0.7-1.9-1.5-3.9-2.6
	c-2.8-1.5-5.4-2-7.8-1.7c-2.3,0.1-4.2,1.1-5.6,3.2l-0.1-0.2c0.2-2-0.1-3.3-0.9-3.9c-1-0.7-2.2-1-3.4-0.9c-1.1,0-2.2,0.1-3.3,0.3
	c-1.1,0.2-2.2,0.6-3.2,1.1c-0.8,0.5-1.5,1.3-1.9,2.2c-0.7,1.2-1.1,3.1-1.3,5.6c-0.2,2.3-0.3,4.7-0.1,7.1c0.1,2.2,0.4,5.2,0.9,9
	c0.3,3.1,0.9,6.2,1.7,9.3c0.4,1.3,0.8,2.6,1.4,3.8c0.5,1.2,1.4,2.2,2.6,2.8c1,0.4,2,0.6,3.1,0.7c1.5,0.1,2.9,0.1,4.3-0.2
	c1.4-0.2,2.7-0.7,3.8-1.4c1-0.6,1.7-1.7,1.6-2.9c-0.1-0.7-0.2-1.4-0.5-2.1c-0.2-0.7-0.4-1.4-0.6-2c-1.5-4.9-2.2-8.6-2.1-11.3
	c0.5-4.2,1.8-6.5,3.9-7s4,0.4,5.9,2.6c0.7,1,1.2,2,1.6,3.1c0.7,1.8,1.1,4.5,1.4,7.9s0.4,5.5,0.4,6.1c0,0.6,0.1,1.1,0.4,1.6
	c0.1,0.3,0.4,0.6,0.7,0.8c0.7,0.6,2,1.1,3.9,1.4c1.5,0.4,3.1,0.4,4.7,0c0.7-0.2,1.1-1.1,1.2-2.7c0.1-2.7,0-5.3-0.2-8
	c-0.1-2.9-0.5-5.7-1.1-8.6c-0.5-2-0.5-3.6-0.1-4.9C301.6,259.5,302.6,258.7,304.3,258.5L304.3,258.5L304.3,258.5z"/>
</svg>
