<?xml version="1.0" encoding="utf-8"?>
<!-- Generator: Adobe Illustrator 22.0.0, SVG Export Plug-In . SVG Version: 6.00 Build 0)  -->
<svg version="1.1" id="Calque_2" xmlns="http://www.w3.org/2000/svg" xmlns:xlink="http://www.w3.org/1999/xlink" x="0px" y="0px"
	 viewBox="0 0 400 400" style="enable-background:new 0 0 400 400;" xml:space="preserve">
<style type="text/css">
	.st0{fill:#FCB197;}
	.st1{fill:#1D1930;}
	.st2{fill:#073135;}
	.st3{fill:#094B56;}
	.st4{opacity:0.15;fill:#356EA1;}
	.st5{fill:#231E3B;}
	.st6{fill:#1E1A33;}
	.st7{fill:#A3C2E3;}
	.st8{fill:#DB1E46;}
	.st9{fill:#FC2250;}
	.st10{opacity:0.46;}
	.st11{fill:#6FB2E6;}
	.st12{fill:url(#SVGID_1_);}
	.st13{fill:url(#SVGID_2_);}
	.st14{opacity:0.39;}
	.st15{fill:url(#SVGID_3_);}
	.st16{fill:#14696D;}
	.st17{fill:#EB204A;}
	.st18{fill:url(#SVGID_4_);}
	.st19{opacity:0.15;}
	.st20{opacity:0.1;fill:#6FB2E6;}
	.st21{opacity:0.15;fill:#66B3ED;}
	.st22{fill:#F7214F;}
	.st23{opacity:0.35;fill:#FC2250;}
	.st24{fill:#FAA88C;}
	.st25{fill:#161325;}
	.st26{fill:#1A162B;}
	.st27{fill:#010001;}
	.st28{fill:#C5E3FA;}
	.st29{fill:#FC1445;}
	.st30{fill:#FFFFFF;}
	.st31{display:none;fill:#FFFFFF;}
</style>
<g>
	<g>
		<g>
			<path class="st0" d="M232.2,294.1c-1.4-0.9-13.3-5.4-16.8-8.4c-3.5-2.9-2.2-9.5-0.8-14.6c0.3-1.1,1.3-4.1,2.7-8.1h-16.5
				c-0.8,8.9-2,17.9-3.7,21.4c-3.7,7.2-2.2,13.3-0.5,14.4c1.6,1.1,11.9-0.4,16.1,0c7.2,0.6,18.2,2.3,20.3,0
				C235.3,296,233.6,295,232.2,294.1z"/>
			<path class="st1" d="M237.2,207.7c-1,6.1-3.5,16.9-4.6,20.5c-1.5,5.3-5.3,20-11.2,34.4c-3.2,7.8-3.8,11-5.7,14.8
				c0,0-7.7,2.3-18-1.2c0,0,0.2-0.8,0.2-0.9c-0.3-2.8-0.1-6.8,0.4-11c1.1-9.6,3.7-20.5,3.9-22.5c0.4-3.4,0.9-6.2,1.5-8.6
				c0.2-0.6,0.3-1.1,0.4-1.6c1.8-7,2.3-9.4,3.1-13.9c0.4-2,1.4-4.8-6.4-6.1c-1.4-0.2-7.2-0.9-11.6-1.2c-13.4-1-33.3-2.8-47.1-6.7
				c-15.2-4.3,3.3-52.9,43-36.2c0,0,35.9,16.2,39.5,17.8C236.6,190.6,238.2,201.6,237.2,207.7z"/>
			<g>
				<path class="st1" d="M234.5,295.1c0,0-0.9,3.4-10.6,3.3c-9.8,0-27.6-2.9-29-4c0,0-1.4,3.4-0.3,4.8c1.1,1.4,32,5.7,39.8,0.6
					c0.4-0.2,0.7-0.6,0.8-1C235.5,298.1,236,296.4,234.5,295.1z"/>
				<path class="st2" d="M235.2,298.3c-0.2,0.4-0.5,0.8-0.9,1.1c-7.9,5-38.7,0.7-39.7-0.7c-0.2-0.3-0.4-0.7-0.4-1.2
					c0,0.7,0,1.4,0.4,1.8c1.1,1.3,31.6,5.6,39.7,0.7c0.5-0.3,0.8-0.7,1-1.2c0.2-0.5,0.4-1.2,0.3-1.9
					C235.5,297.5,235.3,297.9,235.2,298.3z"/>
				<path class="st3" d="M229.8,291.8c-0.7,0.4-1.5,0.9-2.4,1.6c-0.3,0.3-0.8,0.7-0.9,0.8c-1.2,1.3-1.9,2.4-2.1,2.7
					c-0.3,0.6-0.3,1.2-0.2,1.6l-0.2,0c-9.8,0-27.6-2.9-29-4c0,0-0.8-2.3-0.1-5.8c0,0,0.7-3.2,1.8-3.4c0,0,2.1,2.8,5.6,2.8
					c1.5,0,3.7-0.7,3.7-0.7c1.3-0.5,2.3-1,2.8-1.3c0.2-0.1,0.3-0.2,0.3-0.3c0.2-0.5-0.1-1.5-0.5-3.4c0,0-0.7-1.1,3.2-1.9
					c0.6-0.1,2.7-0.8,3-0.3c0.4,0.5,0.1,1.2,0.3,1.9c0.2,0.7,0.9,1.2,1.4,1.8c2.7,2.8,6,5.4,9.6,6.9c0.1,0.1,0.3,0.1,0.4,0.2
					c0.9,0.3,1.7,0.6,2.6,0.7c0.2,0,0.4,0.1,0.6,0.1C229.6,291.8,229.7,291.8,229.8,291.8C229.8,291.8,229.8,291.8,229.8,291.8z"/>
				<path class="st3" d="M234.5,295.1c-0.6-1.4-1.4-2.7-4.7-3.3c-0.7,0.4-1.5,0.9-2.4,1.6c-0.3,0.3-0.7,0.5-0.9,0.8
					c-1.2,1.2-1.9,2.4-2.1,2.7c-0.3,0.6-0.3,1.2-0.2,1.6C233.6,298.4,234.5,295.1,234.5,295.1z"/>
				<path class="st1" d="M229.5,291.8c-2.1,0.5-3,2-3,2c-0.8-0.7-13.2-5.8-17.9-7.7c0.2-0.1,0.3-0.2,0.3-0.3
					c0.2-0.5-0.1-1.5-0.5-3.4c0,0-0.7-1.1,3.2-1.9c0.6-0.1,2.7-0.8,3-0.3c0.4,0.5,0.1,1.2,0.3,1.9c0.2,0.7,0.9,1.2,1.4,1.8
					c2.7,2.8,6,5.4,9.6,6.9c0.1,0.1,0.3,0.1,0.4,0.2c0.9,0.3,1.7,0.6,2.6,0.7C229.2,291.7,229.4,291.8,229.5,291.8z"/>
			</g>
		</g>
		<path class="st4" d="M193.8,211c0,0-3.9-8.4-3.9-8.9c0,0,7.8,9.3,7.8,9.3L193.8,211z"/>
	</g>
	<g>
		<g>
			<path class="st5" d="M221.7,307.6c-0.1,0-0.2,0-0.2,0l-16.9-0.9c-1.9-0.1-3.3-1.4-3.1-2.9c0.1-1.5,1.8-2.6,3.6-2.5l16.9,0.9
				c1.9,0.1,3.3,1.4,3.1,2.9C224.9,306.6,223.5,307.6,221.7,307.6z"/>
		</g>
		<g>
			<path class="st5" d="M186.6,329.9c-0.3,0-0.6-0.1-0.8-0.4c-0.4-0.4-0.4-1.2,0.1-1.6l28-25.8c0.5-0.4,1.2-0.4,1.6,0.1
				c0.4,0.4,0.4,1.2-0.1,1.6l-28,25.8C187.1,329.8,186.8,329.9,186.6,329.9z"/>
		</g>
	</g>
	<g>
		<polygon class="st6" points="98.6,322.8 98.6,322.8 98.6,322.8 98.6,322.7 98.5,322.7 98.5,322.6 98.5,322.6 98.5,322.5 
			98.4,322.5 98.4,322.5 98.3,322.5 98.3,322.4 98.3,322.4 98.2,322.4 98.2,322.4 98.1,322.3 98.1,322.4 98,322.3 98,322.3 
			97.9,322.3 97.9,322.3 97.8,322.3 97.8,322.4 97.7,322.3 97.7,322.4 97.7,322.4 97.7,322.4 97.6,322.4 97.6,322.5 97.5,322.5 
			97.5,322.5 97.4,322.6 97.5,322.6 97.4,322.6 97.4,322.7 97.3,322.7 97.4,322.7 97.3,322.8 97.3,322.8 97.3,322.9 97.3,322.9 
			97.3,323 97.3,323 97.3,323.1 97.3,323.1 97.3,323.2 97.3,323.2 97.3,323.3 97.4,323.3 97.4,323.4 97.4,323.3 97.4,323.4 
			97.5,323.4 97.5,323.5 97.5,323.5 97.6,323.6 97.6,323.5 97.7,323.6 97.7,323.6 97.8,323.6 97.8,323.6 97.8,323.7 97.9,323.6 
			97.9,323.7 98,323.6 98,323.7 98,323.6 98.1,323.7 98.1,323.6 98.2,323.6 98.2,323.6 98.3,323.6 98.3,323.6 98.4,323.5 
			98.4,323.5 98.5,323.5 98.4,323.4 98.5,323.4 98.5,323.4 98.6,323.3 98.5,323.3 98.6,323.2 98.6,323.2 98.6,323.1 98.6,323.1 
			98.6,323 98.6,323 98.6,322.9 98.6,322.9 98.6,322.8 		"/>
		<path class="st6" d="M157.9,320.1l-56.8,2.1l55.9-10c0-0.1-0.1-0.3-0.1-0.4l-55.9,10l53.9-17.7c0-0.1-0.1-0.3-0.1-0.4l-53.9,17.7
			l50.8-25c-0.1-0.1-0.1-0.3-0.2-0.4l-50.9,25l46.8-31.8c-0.1-0.1-0.2-0.2-0.3-0.4l-46.9,31.8l41.9-38c-0.1-0.1-0.2-0.2-0.3-0.3
			l-42,38L136,277c-0.1-0.1-0.2-0.2-0.3-0.3l-36.2,43.4l29.8-48c-0.1-0.1-0.3-0.2-0.4-0.2l-29.8,48l22.8-51.6
			c-0.1-0.1-0.3-0.1-0.4-0.2l-22.8,51.7l15.4-54.3c-0.1,0-0.3-0.1-0.4-0.1l-15.4,54.3l7.7-55.9c-0.1,0-0.3,0-0.4-0.1l-7.7,55.9
			l-0.1-56.4c-0.1,0-0.3,0-0.4,0l0.1,56.4l-8-55.8c-0.1,0-0.3,0-0.4,0.1l8,55.9l-15.7-54.2c-0.1,0-0.3,0.1-0.4,0.1l15.7,54.2
			l-23.1-51.5c-0.1,0.1-0.3,0.1-0.4,0.2l23.1,51.5L66,272.6c-0.1,0.1-0.3,0.2-0.4,0.2l30.1,47.9l-36.5-43.2
			c-0.1,0.1-0.2,0.2-0.3,0.3L95.4,321l-42.2-37.8c-0.1,0.1-0.2,0.2-0.3,0.3l42.2,37.8l-47.1-31.6c-0.1,0.1-0.2,0.2-0.2,0.4L95,321.8
			L43.9,297c-0.1,0.1-0.1,0.3-0.2,0.4l51.2,24.8l-54.2-17.4c0,0.1-0.1,0.3-0.1,0.4l54.2,17.5l-56.2-9.8c0,0.1-0.1,0.3-0.1,0.4
			l56.2,9.8l-57.1-1.8c0,0.1,0,0.3,0,0.4l57.2,1.8l-56.9,6.1c0,0.1,0,0.3,0,0.4l57-6.1l-55.7,14c0,0.1,0.1,0.3,0.1,0.4l55.7-14
			l-53.3,21.7c0.1,0.1,0.1,0.3,0.2,0.4l53.3-21.7l-49.8,28.9c0.1,0.1,0.1,0.3,0.2,0.4l49.9-29l-45.4,35.7c0.1,0.1,0.2,0.2,0.3,0.4
			l45.5-35.7l-40,41.7c0.1,0.1,0.2,0.2,0.3,0.3l40.1-41.7l-33.9,46.9c0.1,0.1,0.2,0.2,0.4,0.3l33.9-46.9l-27,51.2
			c0.1,0.1,0.3,0.1,0.4,0.2l27.1-51.2l-19.7,54.5c0.1,0,0.3,0.1,0.4,0.1l19.7-54.5l-11.9,56.7c0.1,0,0.3,0.1,0.4,0.1L98,326.2
			l-3.9,57.8c0.1,0,0.3,0,0.4,0l3.9-57.8l4.2,57.7c0.1,0,0.3,0,0.4,0l-4.2-57.7l12.2,56.5c0.1,0,0.3-0.1,0.4-0.1l-12.2-56.5
			l19.9,54.1c0.1-0.1,0.3-0.1,0.4-0.2l-19.9-54.2l27.2,50.8c0.1-0.1,0.3-0.1,0.4-0.2L100,325.4l33.9,46.4c0.1-0.1,0.2-0.2,0.4-0.3
			l-34-46.5l40,41.2c0.1-0.1,0.2-0.2,0.3-0.3l-40-41.2l45.2,35.1c0.1-0.1,0.2-0.2,0.3-0.4l-45.3-35.2l49.6,28.5
			c0.1-0.1,0.1-0.3,0.2-0.4L101,324l53,21.2c0.1-0.1,0.1-0.3,0.2-0.4l-53-21.3l55.3,13.6c0-0.1,0.1-0.3,0.1-0.4l-55.4-13.7l56.6,5.8
			c0-0.1,0-0.3,0-0.4l-56.7-5.8l56.8-2.1C157.9,320.4,157.9,320.2,157.9,320.1z M98.6,322.9L98.6,322.9L98.6,322.9l0,0.2l0,0
			l-0.1,0.1l0,0l-0.1,0.1l0,0l-0.1,0.1l0,0l-0.1,0l0,0l-0.1,0l0,0l-0.1,0l0,0l-0.1,0l0,0l-0.1,0l0,0l-0.1,0l0,0l-0.1,0l0,0l-0.1,0
			l0,0l-0.1-0.1l0,0l-0.1-0.1l0,0l-0.1-0.1l0,0l0-0.1l0,0l0-0.1l0,0l0-0.1l0,0l0-0.1l0,0l0-0.1l0,0l0-0.1l0,0l0-0.1l0,0l0-0.1l0,0
			l0-0.1l0,0l0.1-0.1l0,0l0.1-0.1l0,0l0.1,0l0,0l0.1,0l0,0l0.1,0l0,0l0.1,0l0,0l0.1,0l0,0l0.1,0l0,0l0.1,0l0,0l0.1,0l0,0l0.1,0l0,0
			l0.1,0.1l0,0l0.1,0.1l0,0l0,0.1l0,0l0,0.1l0,0l0,0.1l0,0l0,0.1l0,0l0,0.1l0,0L98.6,322.9L98.6,322.9L98.6,322.9L98.6,322.9z"/>
	</g>
	<g>
		<g>
			<path class="st6" d="M372.4,320.1l-56.8,2.1l55.9-10c0-0.1-0.1-0.3-0.1-0.4l-55.9,10l53.9-17.7c0-0.1-0.1-0.3-0.1-0.4l-53.9,17.7
				l50.8-25c-0.1-0.1-0.1-0.3-0.2-0.4L315,321l46.8-31.8c-0.1-0.1-0.2-0.2-0.3-0.4l-46.9,31.8l41.9-37.9c-0.1-0.1-0.2-0.2-0.3-0.3
				l-42,38l36.2-43.4c-0.1-0.1-0.2-0.2-0.3-0.3L314,320.2l29.8-48c-0.1-0.1-0.3-0.2-0.4-0.2l-29.8,48l22.8-51.6
				c-0.1-0.1-0.3-0.1-0.4-0.2l-22.8,51.7l15.4-54.3c-0.1,0-0.3-0.1-0.4-0.1l-15.4,54.3l7.7-55.9c-0.1,0-0.3,0-0.4-0.1l-7.7,55.9
				l-0.1-56.4c-0.1,0-0.3,0-0.4,0l0.1,56.4l-8-55.8c-0.1,0-0.3,0-0.4,0.1l8,55.9l-15.7-54.2c-0.1,0-0.3,0.1-0.4,0.1l15.7,54.2
				l-23.1-51.5c-0.1,0.1-0.3,0.1-0.4,0.2l23.1,51.5l-30.1-47.8c-0.1,0.1-0.3,0.2-0.4,0.2l30.1,47.9l-36.5-43.2
				c-0.1,0.1-0.2,0.2-0.3,0.3l36.5,43.3l-42.2-37.8c-0.1,0.1-0.2,0.2-0.3,0.3l42.2,37.8l-47.1-31.6c-0.1,0.1-0.2,0.2-0.2,0.4
				l47.1,31.6L258.4,297c-0.1,0.1-0.1,0.3-0.2,0.4l51.2,24.8l-54.2-17.4c0,0.1-0.1,0.3-0.1,0.4l54.2,17.5l-56.2-9.8
				c0,0.1-0.1,0.3-0.1,0.4l56.2,9.8l-57.1-1.8c0,0.1,0,0.3,0,0.4l57.2,1.8l-56.9,6.1c0,0.1,0,0.3,0,0.4l57-6.1l-55.7,14
				c0,0.1,0.1,0.3,0.1,0.4l55.7-14l-53.3,21.7c0.1,0.1,0.1,0.3,0.2,0.4l53.3-21.7L260,353.7c0.1,0.1,0.1,0.3,0.2,0.4l49.9-29
				l-45.4,35.7c0.1,0.1,0.2,0.2,0.3,0.4l45.4-35.7l-40,41.7c0.1,0.1,0.2,0.2,0.3,0.3l40.1-41.7l-33.9,46.9c0.1,0.1,0.2,0.2,0.4,0.3
				l33.9-46.9l-27,51.2c0.1,0.1,0.3,0.1,0.4,0.2l27.1-51.2l-19.7,54.5c0.1,0,0.3,0.1,0.4,0.1l19.7-54.5l-11.9,56.7
				c0.1,0,0.3,0.1,0.4,0.1l11.9-56.7l-3.9,57.8c0.1,0,0.3,0,0.4,0l3.9-57.8l4.2,57.7c0.1,0,0.3,0,0.4,0l-4.2-57.7l12.2,56.5
				c0.1,0,0.3-0.1,0.4-0.1l-12.2-56.5l19.9,54.1c0.1-0.1,0.3-0.1,0.4-0.2l-19.9-54.2l27.2,50.8c0.1-0.1,0.3-0.1,0.4-0.2l-27.2-50.8
				l33.9,46.4c0.1-0.1,0.2-0.2,0.4-0.3l-34-46.5l40,41.2c0.1-0.1,0.2-0.2,0.3-0.3l-40-41.2l45.2,35.1c0.1-0.1,0.2-0.2,0.3-0.4
				l-45.3-35.2l49.6,28.5c0.1-0.1,0.1-0.3,0.2-0.4L315.5,324l53,21.2c0.1-0.1,0.1-0.3,0.2-0.4l-53-21.3l55.3,13.6
				c0-0.1,0.1-0.3,0.1-0.4l-55.4-13.7l56.6,5.8c0-0.1,0-0.3,0-0.4l-56.7-5.8l56.8-2.1C372.4,320.4,372.4,320.2,372.4,320.1z
				 M313.2,322.9L313.2,322.9L313.2,322.9l0,0.2l0,0l-0.1,0.1l0,0l-0.1,0.1l0,0l-0.1,0.1l0,0l-0.1,0l0,0l-0.1,0l0,0l-0.1,0l0,0
				l-0.1,0l0,0l-0.1,0l0,0l-0.1,0l0,0l-0.1,0l0,0l-0.1,0l0,0l-0.1-0.1l0,0l-0.1-0.1l0,0l-0.1-0.1l0,0l0-0.1l0,0l0-0.1l0,0l0-0.1l0,0
				l0-0.1l0,0l0-0.1l0,0l0-0.1l0,0l0-0.1l0,0l0-0.1l0,0l0-0.1l0,0l0.1-0.1l0,0l0.1-0.1l0,0l0.1,0l0,0l0.1,0l0,0l0.1,0l0,0l0.1,0l0,0
				l0.1,0l0,0l0.1,0l0,0l0.1,0l0,0l0.1,0l0,0l0.1,0l0,0l0.1,0.1l0,0l0.1,0.1l0,0l0,0.1l0,0l0,0.1l0,0l0,0.1l0,0l0,0.1l0,0l0,0.1l0,0
				L313.2,322.9L313.2,322.9L313.2,322.9L313.2,322.9z"/>
		</g>
		<path class="st6" d="M345.2,266.9c-15.1-8.8-32.8-11.1-49.7-6.5c-16.9,4.5-31,15.4-39.8,30.5c-8.8,15.2-11.2,32.8-6.7,49.8
			c4.5,16.9,15.3,31.1,30.4,39.8c10,5.8,21.2,8.8,32.6,8.8c5.7,0,11.5-0.8,17.1-2.3c16.9-4.5,31-15.4,39.8-30.5
			C387.1,325.2,376.4,285,345.2,266.9z M312.6,268.7c9.5,0,19,2.6,27.3,7.4c12.7,7.3,21.7,19.2,25.5,33.4
			c3.8,14.2,1.8,29.1-5.6,41.8c-7.4,12.7-19.3,21.9-33.5,25.7c-14.2,3.8-29,1.9-41.7-5.5c-12.7-7.3-21.7-19.2-25.5-33.4
			c-3.8-14.2-1.8-29,5.6-41.8c7.4-12.7,19.3-21.9,33.5-25.7C303,269.3,307.8,268.7,312.6,268.7z"/>
		<g>
			<path class="st7" d="M312.2,382.6c-10,0-20-2.5-29.2-7.9c-13.6-7.9-23.2-20.5-27.3-35.7c-4-15.2-1.9-31,6-44.6
				c7.9-13.6,20.6-23.3,35.7-27.4c15.2-4.1,31-2,44.6,5.9c13.6,7.9,23.2,20.5,27.3,35.7c4,15.2,1.9,31-6,44.6
				C352.3,372,332.5,382.6,312.2,382.6z M312.7,266.6c-5,0-9.9,0.7-14.8,2c-14.7,3.9-27,13.4-34.7,26.6c-7.6,13.2-9.7,28.6-5.8,43.3
				c3.9,14.7,13.3,27,26.4,34.6c27.2,15.7,62.1,6.4,77.9-20.9l0.8,0.4l-0.8-0.4c7.6-13.2,9.7-28.6,5.8-43.3
				c-3.9-14.7-13.3-27-26.4-34.6C332.3,269.2,322.6,266.6,312.7,266.6z"/>
		</g>
	</g>
	<path class="st6" d="M130.5,266.9c-15.1-8.8-32.8-11.1-49.7-6.5c-16.9,4.5-31,15.4-39.8,30.5c-8.8,15.2-11.2,32.8-6.7,49.8
		c4.5,16.9,15.3,31.1,30.4,39.8c9.9,5.7,21.2,8.8,32.6,8.8c23.4,0,45.2-12.6,56.9-32.8C172.3,325.2,161.7,285,130.5,266.9z
		 M97.8,268.7c9.5,0,19,2.6,27.3,7.4c26.2,15.2,35.1,48.9,19.9,75.2c-7.4,12.7-19.2,21.8-33.5,25.6c-14.2,3.8-29,1.9-41.7-5.5
		c-12.7-7.3-21.7-19.2-25.5-33.4c-3.8-14.2-1.8-29,5.6-41.8c7.4-12.7,19.3-21.9,33.5-25.7C88.2,269.3,93,268.7,97.8,268.7z"/>
	<g>
		<path class="st7" d="M97.3,382.6c-10,0-20-2.5-29.2-7.9c-28-16.2-37.5-52.3-21.3-80.4c7.9-13.6,20.6-23.3,35.7-27.4
			c15.2-4.1,31-2,44.6,5.9c13.6,7.9,23.2,20.5,27.3,35.7c4,15.2,1.9,31-6,44.6C137.4,372,117.6,382.6,97.3,382.6z M97.8,266.6
			c-4.9,0-9.9,0.7-14.8,2c-14.7,3.9-27,13.4-34.7,26.6c-15.8,27.3-6.5,62.2,20.6,78c8.9,5.2,18.7,7.6,28.4,7.6
			c19.7,0,38.9-10.2,49.5-28.5c7.6-13.2,9.7-28.6,5.8-43.3c-3.9-14.7-13.3-27-26.4-34.6C117.4,269.2,107.7,266.6,97.8,266.6z"/>
	</g>
	<g>
		<g>
			
				<rect x="139.4" y="210.8" transform="matrix(0.9162 -0.4008 0.4008 0.9162 -76.9512 74.9586)" class="st7" width="2.7" height="21.3"/>
		</g>
		<path class="st8" d="M117.4,209.3c1.4,2.2,6,6.1,10.9,6.9c4.9,0.8,39.3,7.8,42.5,5.2c3.2-2.6,1.6-7.4-4.4-9.2
			c-6-1.8-25.2-5.5-31.1-8.8c-6.4-3.5-3.4-5.3-9.1-7.7C121.9,193.9,110.6,198.6,117.4,209.3z"/>
		<path class="st9" d="M120,206.7c1.4,2.2,6,6.1,10.9,6.9c4.9,0.8,39.3,7.8,42.5,5.2c3.2-2.6,1.6-7.4-4.4-9.2
			c-6-1.8-25.2-5.5-31.1-8.8c-6.4-3.5-3.4-5.3-9.1-7.7C124.5,191.3,113.2,196,120,206.7z"/>
	</g>
	<path class="st9" d="M184.3,324.5c-86-2.1-86.6-2-87-1.9l-1.4,0.2l0.6,3.6l0.1,2.9l1.4,0c1.7,0,51.4,1.1,86.1,2l1.4,0l0.2-6.8
		L184.3,324.5z"/>
	<g>
		<g>
			<path class="st9" d="M242.2,337.4c-1,0-1.8-0.7-2-1.7c-0.5-3.5-0.8-7.1-0.8-10.7c0-41.1,33.3-74.5,74.2-74.5
				c15.6,0,30.5,4.8,43.2,13.9c0.9,0.6,1.1,1.9,0.5,2.8c-0.6,0.9-1.9,1.1-2.8,0.5c-12-8.6-26.1-13.1-40.8-13.1
				c-38.7,0-70.2,31.6-70.2,70.5c0,3.4,0.2,6.8,0.7,10.1c0.2,1.1-0.6,2.1-1.7,2.3C242.4,337.4,242.3,337.4,242.2,337.4z"/>
		</g>
		<g class="st10">
			<path class="st11" d="M355.7,266.5c0,0-0.7-0.5-2-1.4c-0.7-0.4-1.5-0.9-2.4-1.5c-0.9-0.6-2-1.1-3.2-1.8c-1.2-0.6-2.5-1.3-3.9-1.9
				c-1.4-0.6-2.9-1.3-4.5-1.9c-1.6-0.6-3.2-1.2-4.9-1.7c-0.8-0.3-1.7-0.5-2.6-0.7c-0.9-0.2-1.7-0.4-2.6-0.6c-1.7-0.4-3.5-0.8-5.3-1
				c-0.9-0.1-1.7-0.3-2.6-0.4c-0.4,0-0.9-0.1-1.3-0.1c-0.4,0-0.8-0.1-1.3-0.1c-0.4,0-0.8-0.1-1.2-0.1c-0.4,0-0.8,0-1.2-0.1
				c-0.8,0-1.6-0.1-2.4-0.1c-0.8,0-1.5,0-2.3,0c-0.7,0-1.4,0-2.1,0.1c-0.7,0-1.3,0.1-1.9,0.1c-0.6,0-1.2,0.1-1.7,0.1
				c-1.1,0.1-2,0.2-2.8,0.3c-1.6,0.2-2.5,0.4-2.5,0.4s0.9-0.2,2.4-0.5c0.8-0.2,1.7-0.3,2.8-0.5c1.1-0.2,2.3-0.3,3.7-0.4
				c0.7,0,1.4-0.1,2.1-0.1c0.7,0,1.5,0,2.3-0.1c0.8,0,1.6,0,2.4,0c0.8,0,1.7,0.1,2.5,0.1c0.4,0,0.9,0.1,1.3,0.1
				c0.4,0,0.9,0.1,1.3,0.1c0.9,0.1,1.7,0.2,2.6,0.3c1.8,0.2,3.6,0.6,5.3,1c0.9,0.2,1.8,0.4,2.6,0.7c0.9,0.3,1.7,0.5,2.6,0.8
				c1.7,0.5,3.4,1.1,4.9,1.8c1.6,0.6,3.1,1.3,4.5,2c1.4,0.7,2.7,1.4,3.9,2c2.4,1.3,4.2,2.6,5.5,3.5
				C355.1,265.9,355.7,266.5,355.7,266.5z"/>
		</g>
	</g>
	<g>
		<g>
			<path class="st9" d="M28.3,301.1c-0.2,0-0.5,0-0.7-0.1c-1-0.4-1.5-1.6-1.1-2.6c1.3-3.3,2.9-6.6,4.7-9.7
				c10-17.2,26-29.5,45.2-34.7c19.2-5.1,39.2-2.5,56.3,7.4c13.5,7.8,24,19.4,30.4,33.6c0.5,1,0,2.2-1,2.6c-1,0.5-2.2,0-2.6-1
				c-6-13.4-16-24.4-28.8-31.8c-16.2-9.4-35.2-11.9-53.3-7c-18.2,4.9-33.3,16.5-42.8,32.8c-1.7,2.9-3.2,6-4.5,9.1
				C29.9,300.6,29.1,301.1,28.3,301.1z"/>
		</g>
		<g class="st10">
			<path class="st11" d="M28.8,297.5c0,0,0.3-0.8,0.9-2.1c0.6-1.3,1.6-3.3,2.9-5.5c0.6-1.1,1.4-2.3,2.2-3.5c0.8-1.2,1.7-2.5,2.6-3.8
				c1-1.3,2-2.6,3.1-3.9c1.1-1.3,2.2-2.6,3.4-3.8c1.2-1.2,2.4-2.4,3.7-3.5c0.6-0.5,1.3-1.1,1.9-1.6c0.6-0.5,1.3-1,1.9-1.5
				c0.6-0.5,1.3-1,1.9-1.4c0.6-0.4,1.3-0.8,1.9-1.3c1.2-0.8,2.4-1.5,3.6-2.1c1.1-0.6,2.2-1.1,3.1-1.6c1-0.4,1.8-0.8,2.5-1.1
				c1.4-0.5,2.2-0.8,2.2-0.8s-0.8,0.3-2.1,1c-0.7,0.3-1.5,0.7-2.4,1.2c-0.5,0.2-0.9,0.5-1.4,0.8c-0.3,0.1-0.5,0.3-0.8,0.4
				c-0.3,0.2-0.5,0.3-0.8,0.5c-1.1,0.6-2.3,1.4-3.5,2.2c-0.6,0.4-1.2,0.9-1.8,1.3c-0.6,0.5-1.2,0.9-1.9,1.4c-0.6,0.5-1.2,1-1.9,1.5
				c-0.6,0.5-1.2,1.1-1.9,1.6c-1.2,1.1-2.4,2.3-3.6,3.5c-1.2,1.2-2.3,2.5-3.4,3.7c-1.1,1.3-2.1,2.5-3.1,3.8c-1,1.3-1.9,2.5-2.7,3.7
				c-0.8,1.2-1.6,2.3-2.3,3.4c-1.4,2.2-2.4,4-3.1,5.3C29.2,296.7,28.8,297.5,28.8,297.5z"/>
		</g>
	</g>
	<g>
		<g>
			<linearGradient id="SVGID_1_" gradientUnits="userSpaceOnUse" x1="48.3775" y1="283.9556" x2="96.3059" y2="283.9556">
				<stop  offset="4.100000e-07" style="stop-color:#FF216A"/>
				<stop  offset="1" style="stop-color:#FF4073"/>
			</linearGradient>
			<polygon class="st12" points="94.4,321.5 48.4,247.6 50.3,246.4 96.3,320.3 			"/>
		</g>
		<g>
			<linearGradient id="SVGID_2_" gradientUnits="userSpaceOnUse" x1="94.7021" y1="284.8964" x2="97.4693" y2="284.8964">
				<stop  offset="4.100000e-07" style="stop-color:#FF216A"/>
				<stop  offset="1" style="stop-color:#FF4073"/>
			</linearGradient>
			<polygon class="st13" points="97.4,324.7 94.7,324.7 94.8,245.1 97.5,245.1 			"/>
		</g>
		<path class="st5" d="M42.9,254.5c0.3,0.2,3.1,0.7,4.6-0.1c0.7-0.4,0.8-5.2,3.7-5.2c4,0,74.9-1.4,80.4-1.8c1.2-0.1,2.2-0.4,3.1-0.8
			c2.3-1.1,1.5-4.6-1.1-4.6c-19.8,0-86.3-0.1-88.3,0.1c-2.4,0.2-4.9,2.1-4.6,6.6C40.8,253.3,41.9,253.9,42.9,254.5z"/>
		<path class="st6" d="M134.7,242.3c0.6,1.1,0.4,2.7-1,3.4c-0.9,0.4-1.9,0.7-3.1,0.8c-5.4,0.3-76.4,1.8-80.4,1.8
			c-2.9,0-2.9,4.8-3.7,5.2c-1.5,0.8-4.3,0.3-4.6,0.1c-0.1-0.1-0.3-0.1-0.4-0.2c0.4,0.6,0.9,0.9,1.3,1.2c0.3,0.2,3.1,0.7,4.6-0.1
			c0.7-0.4,0.8-5.2,3.7-5.2c4,0,74.9-1.4,80.4-1.8c1.2-0.1,2.2-0.4,3.1-0.8C136.6,245.7,136.3,243.1,134.7,242.3z"/>
	</g>
	<g>
		<path class="st6" d="M277,190.7c-0.8-4.5,2.9-8.8,6.6-13c3.3-3.8,6.4-7.4,6-11.3c-0.2-2-8.3-9.6-10.4-11.2l-2.2,2.8
			c1.3,1,9,7.7,9.1,8.7c0.3,2.3-2.4,5.3-5.2,8.6c-1.3,1.5-2.7,3.1-3.9,4.8c1-1.3,1.4-5.1,0.9-6.6c-0.5-1.9-2.4-3-4.1-3.8
			c-1.4-0.7-4.5-2.6-6.1-2c-1.6,0.6-3,3.1-4.5,4l5.2,0.4c2,0.5,5.7,1.9,5.3,3.3c-1.3,4.4-1.7,10,0,16c0.1,0.8,0.4,1.5,0.7,2.3
			l7.8,29.9l3.4-0.9l-7.7-29.7C277.7,193.1,277.2,191.5,277,190.7z"/>
		<path class="st9" d="M291.5,235.2c0.2-0.2,0.4-0.3,0.5-0.4c0.7-0.9-3-16.8-4.3-22c-0.3-1-1.3-1.7-2.4-1.7
			c-2.6,0.2-4.8,1.1-6.2,1.8c-1,0.6-1.5,1.7-1.2,2.8l1.3,4.2c-7.2,3.7-20.3,11.2-23,18.6c-1.6,4.3-2.8,7.8-3.9,10.9
			c-4.4,12.4-6.1,17.2-16,33.6l-61.8,12.5l-27.1-66.7c-0.6-1.6-2.5-2.3-4-1.7c-1.6,0.6-2.3,2.5-1.7,4l41.5,102.1
			c0.5,1.2,1.6,1.9,2.9,1.9c0.4,0,0.8-0.1,1.2-0.2c1-0.4,1.7-1.3,1.9-2.3c26.7-9.6,43.3-29.5,52.7-44.9
			c10.9-17.8,12.7-23.1,17.2-35.9c1.1-3.1,2.3-6.6,3.9-10.8c1.5-4,10.5-9.9,18.5-14.2l0.4,1.3c0,0,1.7,8,2.9,8.8
			c0.4,0.3,1.3,0.2,2.3,0l22.5,86.7l4.7-1.2L291.5,235.2z M186.9,325.9l-9.4-23.2l53-10.7C221.3,304.7,207.2,318.5,186.9,325.9z"/>
	</g>
	<g class="st14">
		<path class="st11" d="M146.2,230.6c0,0,0.5,1.2,1.4,3.2c0.9,2.1,2.1,5,3.6,8.5c1.5,3.5,3.2,7.7,5.1,12.1c1.8,4.4,3.8,9.2,5.7,13.9
			c1.9,4.8,3.8,9.5,5.7,14c1.8,4.5,3.4,8.6,4.9,12.2c1.4,3.6,2.6,6.6,3.4,8.7c0.8,2.1,1.3,3.3,1.3,3.3s-0.5-1.2-1.4-3.2
			c-0.9-2.1-2.2-5-3.6-8.5c-1.5-3.5-3.2-7.7-5.1-12.1c-1.8-4.4-3.8-9.2-5.7-13.9c-1.9-4.8-3.8-9.5-5.6-14c-1.8-4.5-3.4-8.6-4.9-12.2
			c-1.4-3.6-2.6-6.6-3.4-8.7C146.6,231.8,146.2,230.6,146.2,230.6z"/>
	</g>
	<g class="st14">
		<path class="st11" d="M258.1,245.9c0,0-0.3,0.9-0.9,2.6c-0.6,1.6-1.5,4-2.6,6.8c-0.6,1.4-1.2,2.9-1.8,4.5c-0.7,1.6-1.3,3.3-2.1,5
			c-1.5,3.4-3.2,7.1-5,10.6c-0.9,1.8-1.9,3.5-2.8,5.3c-0.5,0.9-1,1.7-1.4,2.5c-0.5,0.8-1,1.7-1.5,2.5c-1,1.6-2,3.1-2.9,4.6
			c-0.9,1.4-1.9,2.8-2.8,4c-1.8,2.4-3.3,4.4-4.5,5.7c-1.1,1.3-1.8,2.1-1.8,2.1s0.6-0.8,1.7-2.2c1.1-1.4,2.5-3.4,4.2-5.9
			c0.8-1.2,1.7-2.6,2.6-4c0.9-1.4,1.8-3,2.8-4.6c0.5-0.8,0.9-1.6,1.4-2.5c0.5-0.8,0.9-1.7,1.4-2.5c0.9-1.7,1.9-3.5,2.8-5.3
			c1.8-3.5,3.6-7.1,5.1-10.5c0.8-1.7,1.5-3.4,2.2-4.9c0.7-1.6,1.3-3.1,1.9-4.4C256.6,249.6,258.1,245.9,258.1,245.9z"/>
	</g>
	<g class="st14">
		<path class="st11" d="M290.9,238c0,0,0.3,1.1,0.8,3c0.5,1.9,1.3,4.7,2.2,8c0.9,3.3,1.9,7.2,3,11.3c1.1,4.2,2.2,8.6,3.3,13
			c1.1,4.4,2.2,8.9,3.2,13c1,4.2,1.9,8.1,2.8,11.4c0.8,3.3,1.4,6.1,1.9,8.1c0.4,2,0.7,3.1,0.7,3.1s-0.3-1.1-0.8-3
			c-0.5-1.9-1.3-4.7-2.2-8c-0.9-3.3-1.9-7.2-3-11.3c-1.1-4.2-2.2-8.6-3.3-13c-1.1-4.4-2.2-8.9-3.2-13c-1-4.2-1.9-8.1-2.8-11.4
			c-0.8-3.3-1.4-6.1-1.9-8.1C291.1,239.1,290.9,238,290.9,238z"/>
	</g>
	<radialGradient id="SVGID_3_" cx="97.9621" cy="323.2932" r="3.5348" gradientUnits="userSpaceOnUse">
		<stop  offset="0" style="stop-color:#570033"/>
		<stop  offset="1" style="stop-color:#730043"/>
	</radialGradient>
	<path class="st15" d="M101.5,323.3c0,2-1.6,3.5-3.5,3.5c-2,0-3.5-1.6-3.5-3.5s1.6-3.5,3.5-3.5C99.9,319.8,101.5,321.3,101.5,323.3z
		"/>
	
		<ellipse transform="matrix(0.2298 -0.9732 0.9732 0.2298 -74.5113 553.3143)" class="st9" cx="312.3" cy="323.7" rx="13.8" ry="13.8"/>
	<path class="st9" d="M280.2,149.7c-0.5,0-2,1.1-2.3,1.4c-3.5,3.6-5.3,5.2-7,5.9c-1.1,0.5-1.5,1.8-1.2,2.9c0.3,1,1,1.9,2.2,2.4
		c1.2,0.6,2.9,0.7,3.9,0.3c1.6-0.7,4.5-4,8.1-8.3c0.4-0.4,0.9-1.3,0.3-2.3C283.3,150.6,282,149.5,280.2,149.7z"/>
	<path class="st0" d="M280.4,159c-0.5,0.6-2.4,2.6-3.3,3c-0.2,0.1-0.7,0.1-0.6-0.2c0.1-1.2-0.6-3.9-2.6-4.9
		c-0.5-0.2-1.3-0.4-2.1-0.5c-0.4,0-0.9-0.1-1.3-0.1c1.5-1.2,2-6.6,0.9-7c0,0,0,0-0.1,0c0.4,0,0.8,0.1,1.1,0.2
		c1.6,0.2,3.1,0.4,4.7,0.6c0.6,0.1,1.1,0.3,1.5,0.8C280.1,152.6,282.3,156.8,280.4,159z"/>
	<path class="st16" d="M271.7,156.5c-0.4,0-0.9-0.1-1.3-0.1c1.5-1.2,2-6.6,0.9-7c0,0,0,0-0.1,0c0.4,0,0.8,0.1,1.1,0.2
		C273.4,150.5,272.9,155.8,271.7,156.5z"/>
	<path class="st9" d="M269.5,161.9c-1-0.3-2.1,0-2.8,0.7c-3.7,3.8-6.9,6.6-8.7,7.5c-1.2,0.5-1.8,1.8-1.4,3c0.3,1.2,1.4,2.1,2.7,2.7
		c1.4,0.6,3.2,0.8,4.3,0.3c1.6-0.7,5.3-4.7,9.1-9.3c0.9-1.1,0.7-2.7-0.4-3.6C271.4,162.7,270.5,162.2,269.5,161.9z"/>
	<ellipse class="st7" cx="312.5" cy="323.5" rx="7.2" ry="7.2"/>
	<path class="st17" d="M257.5,173.8c1.2,1.4,3.8,2.7,5.2,1.9c0.9-0.5,0.8-1.8,0.1-2.4c-0.8-0.6-1.9-1.3-3-1.6
		c-0.7-0.2-2.1-0.5-2.7,0.5C256.9,172.5,257.1,173.3,257.5,173.8z"/>
	<path class="st4" d="M207,248c-0.4,5.5-5.7,12.9-8.6,16.5c1.2-9.6,3.7-20.5,3.9-22.4c0.4-3.4,0.9-6.2,1.6-8.6
		c0.2-0.6,0.3-1.1,0.4-1.6C205.4,235.3,207.3,242.5,207,248z"/>
	<path class="st2" d="M180.4,98.7c0.3,6.2,11.6,40.3,27,50.6c17.7,8,48.2,11.4,62.8,7.3c1.7-0.7,2.3-7,1.2-7.5
		c-5.9-2.7-43.8-9-53.7-15.9c-1.6-1.1-8.9-22.5-11.2-30.7c-4.6-15.7-6.8-18.8-20.8-16.5C182.4,86.6,180.2,93.2,180.4,98.7z"/>
	<path class="st0" d="M269.3,173.4c-0.6,0.3-2.6,0.8-3.5,1.1c-0.3,0.1-0.5-0.2-0.4-0.4c0.3-1.1,0.6-3.4-1.3-4.7
		c-0.8-0.6-1.9-0.9-3-1c-0.8-0.1-1.5-0.1-2.2-0.1c-0.6,0-1.1,0.1-1.4,0.1c-0.2,0-0.4-0.1-0.4-0.4l0.1-6.9c0-0.2,0.2-0.4,0.4-0.3
		c0.5,0,1.4,0.1,2.6,0.3c0.6,0.1,1.3,0.2,2,0.3c2.3,0.5,4.7,1,6.7,1.9c0,0,0.1,0,0.1,0C271.7,165.4,273.1,171.6,269.3,173.4z"/>
	<path class="st16" d="M261.2,168.4C261.2,168.4,261.2,168.4,261.2,168.4c-0.8-0.1-1.5-0.1-2.2-0.1c0.3-0.9,1.4-5.5,1.3-7.1
		c0.6,0.1,1.3,0.2,2,0.3C262.9,162.3,263,166.8,261.2,168.4z"/>
	<g>
		<rect x="75" y="282" transform="matrix(0.5207 -0.8537 0.8537 0.5207 -183.5575 240.9565)" class="st9" width="95.7" height="4"/>
	</g>
	<radialGradient id="SVGID_4_" cx="98.3167" cy="323.4553" r="13.3848" gradientUnits="userSpaceOnUse">
		<stop  offset="0" style="stop-color:#FF4073"/>
		<stop  offset="1" style="stop-color:#FF216A"/>
	</radialGradient>
	<ellipse class="st18" cx="98.3" cy="323.5" rx="13.4" ry="13.4"/>
	<path class="st7" d="M187.7,310.2C187.6,310.2,187.6,310.2,187.7,310.2c-0.7-0.1-1.2-0.1-1.8-0.1c-1.6,0-3.2,0.2-4.7,0.6l-79.3,6.5
		c-1.1-0.6-2.3-0.9-3.6-0.9c-4,0-7.2,3.2-7.2,7.2c0,4,3.2,7.2,7.2,7.2c0.4,0,0.7,0,1.1-0.1l77.2,15.3c2.7,1.5,5.9,2.4,9.2,2.4
		c10.5,0,19-8.5,19-19C204.9,319.3,197.3,311.2,187.7,310.2z M171.5,341.7l-67.8-13.4c1.1-1.3,1.8-2.9,1.8-4.8
		c0-1.2-0.3-2.3-0.8-3.3l69.1-5.7c-4.3,3.5-7,8.8-7,14.7C166.8,334,168.6,338.3,171.5,341.7z M185.8,342.5c-7.3,0-13.3-6-13.3-13.3
		s6-13.3,13.3-13.3c7.3,0,13.3,6,13.3,13.3S193.2,342.5,185.8,342.5z"/>
	<g>
		<g>
			<g>
				<path class="st5" d="M163.1,346.3c-0.3,0-0.7-0.1-0.9-0.4c-0.4-0.5-0.3-1.2,0.2-1.6l23.4-18.1c0.5-0.4,1.2-0.3,1.6,0.2
					c0.4,0.5,0.3,1.2-0.2,1.6l-23.4,18.1C163.6,346.2,163.3,346.3,163.1,346.3z"/>
			</g>
			<g>
				<path class="st5" d="M168.6,349.1c-0.5,0-0.9-0.1-1.4-0.4l-15-7.7c-1.7-0.9-2.3-2.9-1.5-4.6c0.9-1.7,2.9-2.3,4.6-1.5l15,7.7
					c1.7,0.9,2.3,2.9,1.5,4.6C171.2,348.5,169.9,349.1,168.6,349.1z"/>
			</g>
		</g>
		
			<ellipse transform="matrix(5.551721e-02 -0.9985 0.9985 5.551721e-02 -152.5467 496.343)" class="st5" cx="186.1" cy="328.8" rx="9.6" ry="9.6"/>
	</g>
	<path class="st0" d="M161.1,329.9c-0.7-0.5-2.7-3.1-4.3-5.9c0,0,0,0,0,0c-0.5-0.9-1-1.8-1.4-2.7c-0.3-0.7-0.6-1.3-0.7-1.9
		c0.5-0.7,1.1-1.6,1.7-2.4c0.1-0.1,0.2-0.2,0.2-0.3c1.4-2.1,3.1-4.5,4.8-7.1c-4-1.6-7.9-3.4-11.5-5.7c-2,5.2-3.5,9.2-3.9,10
		c-0.9,1-1.3,2-1.6,2.3c-5.4,4.4-4.3,7.1-3.6,8.5c0.7,1.4,6.3,5.3,9.2,7.1c0.4,0.3,0.9,0.5,1.3,0.8c4.5,2.8,9.3,5.8,11.3,4.6
		c1-0.9,2-2.3,1.9-3.8C163.2,331.9,162,330.6,161.1,329.9z"/>
	<g>
		<path class="st1" d="M171.4,338.7c0,0-2.3,2.2-10-2.4c-7.8-4.7-20.5-15.4-21.2-17c0,0-2.8,2-2.6,3.7c0.2,1.6,22.7,19.7,31.3,19.5
			c0.4,0,0.8-0.1,1.1-0.4C170.7,341.6,171.9,340.4,171.4,338.7z"/>
		<path class="st2" d="M170.4,341.5c-0.4,0.3-0.8,0.4-1.2,0.4c-8.7,0.2-31-17.9-31.2-19.5c0-0.4,0.1-0.7,0.2-1.1
			c-0.4,0.5-0.6,1.1-0.5,1.6c0.2,1.6,22.4,19.5,31.1,19.5c0.5,0,1-0.2,1.4-0.5c0.4-0.3,0.8-0.8,1.1-1.3
			C171,341,170.7,341.3,170.4,341.5z"/>
		<path class="st1" d="M169.2,333.9c-0.7,0-1.6,0-2.7,0.1c-0.4,0-1,0.1-1.1,0.2c-1.8,0.5-3,1.2-3,1.2s-0.8-0.8-3.5-4.2
			c-3.6-4.6-5.9-10.3-6.6-12.2c1.7,0.3,2.1-0.6,2.4-0.8c0.4-0.3-1.3-2.6,0.3-3.5c0,0,2-1.2,5.5,0.1c0.5,0.2,1.1,0.8,1.1,1.3
			c0.1,0.9,0.2,2.4,0.5,3.8c0,0.1,0,0.2,0,0.3c0,0.1,0,0.2,0,0.2c0,0.1,0,0.1,0,0.2c0.1,0.6,0.2,1.2,0.4,1.7
			c0.1,0.2,0.1,0.4,0.2,0.6c0,0.1,0.1,0.3,0.2,0.5c0,0,0,0,0,0c0,0.1,0.1,0.3,0.1,0.4c0.2,0.7,0.5,1.4,0.8,2.2
			c0,0.1,0.1,0.2,0.1,0.3l0,0.1c0,0.1,0.1,0.2,0.1,0.3c0.3,0.7,0.6,1.4,1,2.1c0.1,0.1,0.1,0.3,0.2,0.4c0.4,0.7,0.8,1.3,1.2,1.9
			c0.1,0.1,0.2,0.2,0.3,0.3c0.5,0.7,1.1,1.3,1.7,1.8C168.8,333.5,169,333.7,169.2,333.9C169.2,333.8,169.2,333.8,169.2,333.9z"/>
		<path class="st3" d="M162.5,335.3C162.4,335.3,162.4,335.3,162.5,335.3c0,0-0.9-0.7-3.6-4.1c-3.6-4.6-5.9-10.3-6.6-12.2
			c-1-0.2-2.1-0.5-3.2-1.2c-2.7-1.7-2.8-4.8-2.8-4.8c-0.9-0.1-2.7,1.1-3.4,1.8c-2.4,2.3-2.7,4.6-2.7,4.6c0.6,1.6,13.4,12.3,21.2,17
			c0.1,0,0.1,0.1,0.2,0.1C161.7,336.1,162,335.7,162.5,335.3z"/>
		<path class="st3" d="M171.4,338.7c0.2-1.4,0.1-2.8-2.2-4.9c-0.8,0-1.6,0-2.7,0.1c-0.4,0-0.8,0.1-1.1,0.2c-1.6,0.4-2.7,1-2.9,1.1
			c-0.5,0.4-0.8,0.8-0.9,1.2C169.1,340.9,171.4,338.7,171.4,338.7z"/>
		<g>
			<path class="st3" d="M158,321.4c-0.2,0.6-0.9,0.8-1.4,0.4c-0.2-0.2-0.3-0.5-0.2-0.8c0.2-0.6,0.9-0.8,1.4-0.4
				C158,320.8,158,321.1,158,321.4z"/>
			<path class="st3" d="M159.9,327.1c-0.2,0.4-0.7,0.5-1.1,0.3c-0.4-0.2-0.5-0.7-0.3-1.1c0.2-0.4,0.7-0.5,1.1-0.3
				C160,326.2,160.1,326.7,159.9,327.1z"/>
			<path class="st3" d="M158.7,324.4c-0.2,0.4-0.7,0.5-1.1,0.3c-0.4-0.2-0.5-0.7-0.3-1.1c0.2-0.4,0.7-0.5,1.1-0.3
				C158.8,323.5,158.9,324,158.7,324.4z"/>
			<path class="st3" d="M161.3,329.5c-0.2,0.4-0.7,0.5-1.1,0.3c-0.4-0.2-0.5-0.7-0.3-1.1c0.2-0.4,0.7-0.5,1.1-0.3
				C161.5,328.7,161.6,329.2,161.3,329.5z"/>
			<path class="st3" d="M163,332.3c-0.2,0.4-0.7,0.5-1.1,0.3c-0.4-0.2-0.5-0.7-0.3-1.1c0.2-0.4,0.7-0.5,1.1-0.3
				C163.1,331.4,163.2,331.9,163,332.3z"/>
		</g>
	</g>
	<path class="st1" d="M192.3,207.8c-0.5-1-0.9-1.9-1.2-2.7c-0.7-1.6-3.2-8.7-5-12c-12.1-22.3-16.7-28.4-25-29.5
		c-2-0.3-16.9-4.6-18.4-4.2c-5.5,0.3-9.1,10.2-14,10.9c-3.6,11.5-1.5,25.6,7.9,33.7c7.2,6.3,16.6,14.4,21.7,18.7c0,0,7,5.7,9.7,9.6
		c4.3,6.2,3.4,9.3,2.9,13.8c-0.5,4.5-4,13.4-6.8,17.1c-0.9,1.2-3.2,6.5-4.5,9.4c-4.2,9.2-9.7,20.1-13.2,33.2c0.8,1.3,2.1,2,2.7,2.4
		c1.5,1,3.4,2.2,5.1,2.9c3,1.3,4.6,1.8,6.8,2c15.8-16.5,27.6-37.4,29.7-39.9c10.5-13.1,15.2-21.3,15.4-27.1
		C206.3,233.3,196.3,216.6,192.3,207.8z"/>
	<path class="st4" d="M189.6,202.3c0.1-0.1,0.2-0.2,0.1-0.4c-0.1-0.2-0.2-0.4-0.3-0.7c-0.9-1.8-1.7-3.6-2.7-5.4
		c-1.3-2.4-2.9-4.6-4.4-6.9c-1.6-2.4-3.2-4.7-5.2-6.7c-0.4-0.4-0.4-1,0-1.4c0.1-0.1,0.1-0.2,0.2-0.2c0.7-0.7,1.3-1.3,2.2-1.8
		c0.4-0.2,0-0.8-0.3-0.6c-0.9,0.6-1.6,1.3-2.4,2c-0.5,0.5-0.7,0.8-1.7,0.3c-0.3-0.1-0.5-0.4-0.7-0.6l-1.6-1.3
		c-0.3-0.3-0.8,0.2-0.5,0.5c0.8,0.7,1.6,1.3,2.4,2c0.3,0.2,0.9,0.7,1,0.8c2.4,2.4,4.4,5,6.3,7.8c1.5,2.2,3,4.4,4.3,6.7
		c1,1.9,2,3.9,3,5.8C189.3,202.3,189.5,202.3,189.6,202.3C189.6,202.3,189.6,202.3,189.6,202.3z"/>
	<g class="st19">
		<path class="st1" d="M155.1,183.2c-1.5,1.7-3,3.3-4.7,4.7c-1.8,1.5-3.7,2.8-5.5,4.1c-0.3,0.2,0,0.7,0.3,0.6
			c3.1-1.6,4.8-2.8,6.5-4.3c1.8-1.5,3.1-2.5,4.7-4.2C156.6,183.8,155.3,182.9,155.1,183.2L155.1,183.2z"/>
	</g>
	<path class="st2" d="M190.1,170c0,0-8.8,6.5-18.8,8.8c-10,2.4-43.8,6.3-44.5,5.8c-0.3-0.2-0.4-1.3-0.4-2.4c0-1.3,0.1-2.6,0.1-2.6
		c57.9-7.6,58.5-12.5,58.5-12.5l3.5,2.2L190.1,170z"/>
	<path class="st20" d="M188.5,169.3c-0.7,0.6-2.1,1.7-4.1,2.8c-2.6,1.5-9.2,5.9-18.4,6.3c-15,0.7-35.2,2.9-39.7,3.8
		c0-1.3,0.1-2.6,0.1-2.6c57.9-7.6,58.5-12.5,58.5-12.5L188.5,169.3z"/>
	<polygon class="st0" points="193.2,99.8 165.3,92.6 183.1,49.8 195.4,70.1 194.8,77.8 	"/>
	<path class="st3" d="M195,118.4c-2.9,6.3-6.4,12.3-8.1,19c-0.6,2.2-1,4.5-1.4,6.8c-0.8,5.1-1.6,10.3-0.6,15.4
		c0.2,1.1,0.4,2.8,1.1,3.7c0.4,0.6,1.3,1,1.8,1.5c1.5,1.5,1,2.7-0.6,3.9c-6.8,5.3-7,4-13,6.3c-4.2,1.6-8.1,2.3-14.1,2.6
		c-3.8,0.2-7.4-0.2-11.2,0c0,0,0,0-0.1,0c-6.7,0.3-15.9,2.2-22.5,3c-0.6-1,0.2-5.1,1-8.1c1.6-6.1,1.6-5.8,3-10.9
		c1.6-5.9,2.6-11.9,4.7-17.6c3.3-9,5.6-18.4,8.7-27.4c7.8-24.4,14.7-34.1,19.1-39.4c1.2-1.5,2-3.3,3.2-4.8c1.1-1.4,4.5-2.4,5.9-1.1
		c0.7,0.6,1.2,1.5,1.9,2.1c0.8,0.7,1.7,1.3,2.7,1.8c4.6,2.7,9.6,4.5,14,7.5c0.2,0.2,0.5,0.3,0.7,0.5c3.9,2.8,9.9,3.3,9.9,3.3
		c0.5,2.1,1.6,4.8,1.6,7c0,2.3-0.7,5.7-1.3,7.9c-1.3,4.9-3.1,9.1-5.1,13.7C195.9,116.2,195.4,117.3,195,118.4z"/>
	<path class="st21" d="M186.6,136.4c-0.6,1,0.6,3.1,0.2,4.1c-1.1,2.6-1.9,6.5-2.1,9.3c-18.2-17.6-19.1-41.2-19.1-41.2L186.6,136.4z"
		/>
	<path class="st22" d="M195.6,115c-5.5,14.7-11.1,12.4-11.1,12.4l-2.5-3.8c0,0,7.4-6.8,10.3-11c4-12.1-2.3-16.6-11.8-17.5
		c-20.3-2-39.5,26-39.3,25c0.2-1,1-14.2,1-14.2s8.8-33.5,40.8-16.4C194.1,92.4,201.3,99.9,195.6,115z"/>
	<path class="st9" d="M128.9,161.5c1.4,0.4,39.1-18.7,60.1-37.5l-3.2-2.4l-57.7,36L128.9,161.5z"/>
	<path class="st3" d="M258.9,168.5c-16.1,1.2-44,0.8-61.4-7.6c-5.1-3.7-11.2-9.8-15.5-16.6c-8.4-13.1-14.7-28.9-15-32.9
		c-0.5-6.3,3.5-13.4,10-15.1c7.9-2.4,15.6-0.6,19.6,12.9c0.5,1.7,15.4,30.3,16.2,30.9c9.7,7.1,41.8,18.7,48,20.5
		c1.2,0.4,1.3,5.4-0.7,7.4C259.7,168.3,259.3,168.5,258.9,168.5z"/>
	<g>
		<g>
			<path class="st9" d="M128.6,161.4l-72.9-23.7c-0.6-0.2-1-0.9-0.8-1.6l25.8-79.4c0.2-0.6,0.9-1,1.6-0.8l72.9,23.7
				c0.6,0.2,1,0.9,0.8,1.6l-25.8,79.4C130,161.3,129.3,161.6,128.6,161.4z"/>
			<path class="st9" d="M150.8,96L73.2,70.8c-0.5-0.2-0.8-0.7-0.6-1.2L78,52.9c0.2-0.5,0.7-0.8,1.2-0.6l77.6,25.2
				c0.5,0.2,0.8,0.7,0.6,1.2l-5.5,16.8C151.8,95.9,151.3,96.2,150.8,96z"/>
			<polygon class="st23" points="74.4,76.1 151.1,94.4 75.9,71.5 			"/>
		</g>
	</g>
	<g>
		<g>
			<g>
				<path class="st24" d="M194.9,76.9c-6.8-6.3-8.1-12-8.1-12s3.6,4.1,8.5,7.2L194.9,76.9z"/>
				<g>
					<path class="st0" d="M199.6,76.7c9.2,4.8,7.7,0,10.6-7.4c2.5-6.3,5.3-20.2,4.9-30.3c-0.2-6.7-3.3-8.3-7.1-12.5
						c-7.8-8.6-22-5.3-25.4,5.8c-2.5,8.3-2.4,26.8,1.9,31.4C190.4,70.1,195.2,74.2,199.6,76.7z"/>
					<g>
						<path class="st25" d="M172.9,46.1c0.3,0.8,0.7,1.6,1.1,2.4c0.6,1.2,1.2,2.5,1.8,3.7c1.1,2.2,1.8,4.3,3.6,6
							c1.8,1.7,3-5.1,3.2-5.9c0.7-3.2,1.7-8.2,5.5-9.1c4.5-1.1,8.1-0.4,12.7-0.4c2.8,0,8.4,0.9,11.1,1.1c3.4,0.2,4.8,0.1,7.1-1.2
							c3-1.7,3.4-6.6,2.2-9.6c-0.1-0.3-0.2-0.5-0.4-0.8c0,0-0.3-0.3-0.3-0.3c0,0.3-0.1,0.8-0.2,1c-0.1,0.4-0.4,0.6-0.7,0.9
							c-0.6,0.4-1.5,0.4-2.1,0.1c-0.2-0.1-0.4-0.3-0.6-0.5c-0.4-0.7,0.1-1.5,0.4-2.2c0.4-0.9,0.5-1.9,0.3-2.9
							c-0.2-0.8-1.1-1.2-1.3-1.8c-0.2-0.8,0.7-0.8,0.6-1.7c0-0.8-0.7-1.4-1.3-1.8c-2.4-1.9-5.4-3.2-8.5-3.7c0.7-0.3,1.6-0.8,1.5-1.6
							c0-0.7-0.8-1.2-1.5-1.4c-5.8-2.2-12.5-1.3-18.1,1.6c-0.3,0.2-0.7,0.4-1,0.4c-0.1,0-0.1,0-0.2,0c-2,0-2.2-2.6-4.5-2.2
							c-0.9,0.2-1.7,0.7-2.5,1.2c-1.3,0.9-2.7,1.8-3.7,3.1c-0.7,0.9-1.2,2-1.7,3c-2.1,4.9-3.4,10.1-3.7,15.4c-0.1,2-0.3,3.8,0.3,5.8
							C172.6,45.1,172.7,45.6,172.9,46.1z"/>
						<g>
							<g>
								<path class="st26" d="M191.6,22.1c3.1-1.6,6.7-1.8,10-0.6c0-0.2-0.1-0.4-0.1-0.6c-0.8,0.6-1.7,1.1-2.5,1.7
									c-0.3,0.2-0.1,0.6,0.2,0.6c2.1,0.4,4.1,1.1,6,2.1c0.8,0.4,2.8,1,1.8,2c-0.3,0.3-0.5,0.3-0.7,0.7c-0.1,0.1,0,0.3,0.1,0.4
									c1.2,0.8,2.3,1.7,3.3,2.8c0.5,0.5,1,1.1,1.4,1.7c0.3,0.4,0.5,1.3-0.1,1.7c-0.3,0.2-1.2,0-1.4,0c-3.3-0.2-6.6-0.4-10-0.5
									c-0.5,0-0.5,0.7-0.1,0.7c2.1,0.1,4.1,0.2,6.2,0.3c1.7,0.1,3.6,0.4,5.2,0.2c3.1-0.4-0.1-4-1-4.9c-0.5-0.5-1-1-1.5-1.4
									c-0.3-0.2-0.6-0.4-0.9-0.7c-0.6-0.5-0.4-0.1-0.1-0.5c0.4-0.5,1-0.6,0.6-1.5c-0.5-1.1-2.5-1.8-3.6-2.2
									c-1.7-0.8-3.5-1.3-5.3-1.7c0.1,0.2,0.1,0.4,0.2,0.6c0.8-0.6,1.7-1.1,2.5-1.7c0.2-0.2,0.1-0.5-0.1-0.6
									c-3.5-1.3-7.3-1.1-10.6,0.6C190.9,21.7,191.2,22.3,191.6,22.1L191.6,22.1z"/>
							</g>
							<g>
								<path class="st26" d="M207.8,39.6c-6.4,1.2-13-0.5-18-4.6c-0.4-0.3-0.8,0.3-0.4,0.6c5.2,4.2,12,5.9,18.5,4.7
									C208.4,40.2,208.3,39.5,207.8,39.6L207.8,39.6z"/>
							</g>
							<g>
								<path class="st26" d="M177.7,41.9c-1.7,2.9-1.8,7.4-0.2,10.5c0.2,0.4,0.9,0.1,0.7-0.3c-1.4-2.8-1.5-7,0.1-9.7
									C178.5,41.9,178,41.5,177.7,41.9L177.7,41.9z"/>
							</g>
							<g>
								<path class="st26" d="M179.8,22.2c-4.7,2.1-6.4,7.6-4.9,12.3c0.1,0.4,0.8,0.1,0.7-0.3c-1.4-4.3,0.2-9.4,4.5-11.3
									C180.6,22.7,180.3,22.1,179.8,22.2L179.8,22.2z"/>
							</g>
							<g>
								<path class="st26" d="M183.1,28.7c-1.1,1.6-2.1,3.7-1.7,5.6c0.1,0.5,0.8,0.3,0.7-0.1c-0.3-1.8,0.6-3.7,1.6-5.1
									C184,28.7,183.4,28.3,183.1,28.7L183.1,28.7z"/>
							</g>
						</g>
					</g>
					<g>
						<path class="st0" d="M187.9,47.2c0-2.3-1.6-4.9-3.5-4.9c-5.6,0.2-3.3,9.8-1.8,11.3c0.9,0.9,2.3,0.4,3.3-0.2
							c0.6-0.4,1.1-1,1.2-1.8L187.9,47.2z"/>
						<g>
							<path class="st24" d="M185.3,45.8c-0.7-0.7-2.1-0.2-2.4,0.7c-0.5,1.4,0.4,2.9,0.8,4.2c0.1,0.2,0.4,0.2,0.4-0.1
								c-0.2-0.8-0.6-1.6-0.8-2.4c-0.1-0.4-0.2-0.9-0.1-1.3c0.1-0.8,1.2-1.4,1.9-0.8C185.2,46.2,185.5,45.9,185.3,45.8L185.3,45.8z"
								/>
						</g>
					</g>
					<path class="st0" d="M210.9,63.4c1.4-1.4,3.4-2.8,5.1-4c0.2-0.2,0.3-0.4,0.2-0.7c-1.4-3.7-2.2-8.1-1.7-12L210.9,63.4z"/>
				</g>
			</g>
			<g>
				<path class="st27" d="M210.7,47.1c-2.2-1-5.2-0.6-7.4,0.4c-0.5,0.2-0.3,0.9,0.2,0.7c2-0.7,4.8-0.6,6.5,0
					C210.6,48.4,210.9,47.4,210.7,47.1z"/>
			</g>
			<g>
				<path class="st27" d="M204.3,63.7c1.6,1.5,3.5,2.5,5.7,2.8c0.5,0.1,0.6-0.7,0.1-0.8c-2-0.3-3.8-1.1-5.2-2.5
					C204.6,62.8,204,63.3,204.3,63.7L204.3,63.7z"/>
			</g>
			<g>
				<path class="st27" d="M207.9,51.2c-0.1,0-0.3-0.1-0.4-0.1c-0.1,0-0.2,0-0.2,0c-0.6,0.2-0.5,1-0.1,1.2c0.2,0.1,0.7,0.1,0.8,0
					c0.2-0.2,0.2-0.4,0.3-0.6C208.3,51.4,208.1,51.3,207.9,51.2z"/>
				<g>
					<path class="st27" d="M206.3,51.6c1.1-0.3,1.9-0.2,3,0.1c0.5,0.2,0.8-0.6,0.3-0.8c-1.2-0.5-2.3-0.4-3.5,0
						C205.6,51.2,205.8,51.8,206.3,51.6L206.3,51.6z"/>
				</g>
			</g>
			<path class="st9" d="M171.9,40c-0.4-2.2,0.1-6.6,1.3-11.3c1.6-6,5.7-11.2,11.3-13.9c4.8-2.3,10.5-3.8,15.8-3.5
				c10.7,0.6,15.1,7.3,17.7,14.1C214.5,29.8,196,36.4,171.9,40z"/>
			<path class="st9" d="M211.4,24.3c0,0,22.6-1.8,22.3,0c-0.7,5.1-26.6,7.2-26.6,7.2L211.4,24.3z"/>
			<g>
				<path class="st26" d="M206.5,37.8c2-0.2,3.5,0.3,5.4,0.9c1.5,0.4,3,1,4.5,0.9c2.1-0.1,4.5-1.6,4-4c0-0.2-0.3-0.3-0.4-0.1
					c-0.3,0.5-0.3,1.1-0.6,1.6c-0.4,0.8-1.2,1.3-2.1,1.5c-1.6,0.4-3.2-0.2-4.7-0.6c-1.7-0.5-4.6-1.7-6.3-0.5
					C206.3,37.7,206.4,37.8,206.5,37.8L206.5,37.8z"/>
			</g>
			<g>
				<path class="st28" d="M201.6,65.4c-0.4-0.1-0.6,0.5-0.2,0.6l0,0"/>
				<path class="st28" d="M213.3,69c0.4,0.1,0.6-0.5,0.2-0.6"/>
			</g>
		</g>
		<path class="st29" d="M188.4,11.8c0.1-0.1,0.3-0.2,0.4-0.2c0.9-0.3,1.8-0.6,2.7-0.8c0.1,0,0.2,0,0.3,0c0.9,0.4,1.8,1.1,1.8,1.1
			c0,0.3-0.1,0.5-0.2,0.7c-0.6,0.9-2.2,1.6-3.6,1.8c-0.5,0.1-1.4,0.1-2.4-0.4c-0.1,0-0.1-0.1-0.1-0.2
			C187.7,13.2,188.3,11.8,188.4,11.8z"/>
		<g>
			<path class="st3" d="M152.9,90.6c-3.8-4.7,4.3-8.8,4.8-9.2c0.5-0.4,0.9-0.9,0.8-1.4c-0.1-0.5-0.7-0.9-1.1-1.4
				c-1.2-1.6-0.6-4.8,4-6.7c3.3-6.3,7.7-7.5,14.7-6.3c1,1.1,1.5,10.7,22.7,14.4c2.9,0.5,2.2,4.3,2.4,7.1c0.3,4.2-9.2,5.3-12.8,5.4
				C172.3,93.1,154.7,94.2,152.9,90.6z"/>
			<g>
				<path class="st21" d="M159.1,80.7c2.1,2.1,5,4.1,8.1,5.1c3.5,1.2,6.5,1.9,12.1,1.9c0.3,0,0.6-0.4,0.2-0.4
					c-5.6-0.9-7.1-1.6-10.6-2.7c-1.7-0.5-3.1-0.9-5-1.8c-1.5-0.8-3-1.6-4.5-2.4C159.3,80.3,158.9,80.6,159.1,80.7L159.1,80.7z"/>
			</g>
			<g>
				<path class="st21" d="M176.5,84.5c1.9,0.9,3.8,1.6,6,2c1.9,0.4,4.1,0.7,6.1,0.3c0.1,0,0.1-0.2,0-0.2c-1.9-0.4-3.9-0.5-5.8-0.9
					c-2-0.4-4-1-5.9-1.7C176.4,83.9,176.1,84.3,176.5,84.5L176.5,84.5z"/>
			</g>
			<g>
				<path class="st21" d="M161.8,72.2c1.5,1.3,3.1,2.3,5,3.2c1.7,0.8,3.7,1.6,5.7,1.6c0.1,0,0.2-0.1,0.1-0.2
					c-1.6-0.8-3.6-1.3-5.3-2.1c-1.8-0.8-3.5-1.8-5.1-2.9C161.9,71.6,161.5,71.9,161.8,72.2L161.8,72.2z"/>
			</g>
		</g>
	</g>
</g>
<path id="munchy_5_" class="st30" d="M114.1,113.1c1.5,0.3,2.5,1.5,3,3.5c0.1,0.8,0.2,1.7,0.1,2.5c-0.2,1.5-0.4,2.9-0.8,4.3
	c-0.4,1.4-1,2.8-1.7,4.1c-0.2,0.3-0.4,0.7-0.6,1.1c-0.2,0.4-0.3,0.8-0.2,1.2c0,0.3,0.1,0.5,0.2,0.8c0.3,0.6,1,1.3,2.1,2.1
	c0.9,0.7,1.9,1.2,3,1.4c0.5,0.1,1.1-0.1,1.4-0.5c1.2-1.2,2.1-3.1,2.9-5.8c0.6-2.1,1.1-4.2,1.5-6.4c0.4-2.3,0.4-4.6,0.2-7
	c-0.2-2.3-1.1-4.6-2.5-6.5c-1.3-1.8-2.8-3-4.4-3.6c-1.5-0.6-3.2-0.7-4.8-0.4c-1.5,0.3-2.9,0.9-4.1,1.9c-0.2-0.6-0.8-1.6-1.7-2.9
	c-1.3-1.8-2.8-2.9-4.5-3.5c-1.5-0.7-3-0.5-4.6,0.4l0-0.1c0.8-1.2,1-2.2,0.6-2.8c-0.5-0.7-1.1-1.3-1.9-1.6c-0.7-0.3-1.5-0.6-2.3-0.8
	c-0.8-0.2-1.6-0.3-2.4-0.3c-0.7,0.1-1.4,0.4-1.9,0.9c-0.8,0.6-1.7,1.6-2.6,3.2c-0.9,1.4-1.6,3-2.2,4.5c-0.6,1.5-1.3,3.5-2.2,6.1
	c-0.7,2.1-1.3,4.3-1.7,6.5c-0.2,1-0.2,1.9-0.3,2.9c0,0.9,0.2,1.8,0.8,2.6c0.5,0.6,1.1,1,1.8,1.4c0.9,0.5,1.9,0.9,2.9,1.2
	c0.9,0.3,1.9,0.4,2.9,0.3c0.9,0,1.6-0.6,1.9-1.4c0.2-0.5,0.3-1,0.3-1.5c0.1-0.5,0.1-1,0.2-1.5c0.5-3.6,1.2-6.2,2.1-7.9
	c1.6-2.5,3.2-3.6,4.7-3.3c1.5,0.3,2.5,1.5,3,3.5c0.2,0.8,0.2,1.7,0.1,2.5c-0.1,1.4-0.6,3.2-1.5,5.5c-0.9,2.3-1.4,3.6-1.6,4
	c-0.2,0.4-0.3,0.8-0.2,1.2c0,0.3,0.1,0.5,0.2,0.7c0.3,0.6,1,1.3,2.1,2.1c0.9,0.7,1.9,1.2,3,1.4c0.5,0.1,1.1-0.4,1.6-1.4
	c0.9-1.7,1.6-3.4,2.3-5.2c0.8-1.9,1.4-3.8,1.9-5.8c0.3-1.4,0.8-2.5,1.4-3.2C112.1,112.9,113,112.8,114.1,113.1L114.1,113.1
	L114.1,113.1z"/>
<path id="munchy_4_" class="st31" d="M74.7,83.3c0.5,0.1,0.9,0.5,1.2,1.2c0.1,0.3,0.1,0.6,0.1,0.9c0,0.5-0.1,1-0.2,1.6
	c-0.1,0.5-0.3,1-0.5,1.5c-0.1,0.1-0.1,0.2-0.2,0.4c-0.1,0.1-0.1,0.3,0,0.4c0,0.1,0,0.2,0.1,0.3c0.1,0.2,0.4,0.4,0.8,0.7
	c0.3,0.2,0.7,0.4,1.1,0.4c0.2,0,0.4-0.1,0.5-0.2c0.4-0.5,0.7-1.2,0.9-2.1c0.2-0.8,0.3-1.5,0.3-2.3c0.1-0.8,0-1.7-0.1-2.5
	c-0.1-0.8-0.5-1.6-1.1-2.2c-0.6-0.6-1.1-1-1.7-1.1c-0.6-0.1-1.2-0.2-1.7,0c-0.5,0.1-1,0.4-1.4,0.8c-0.1-0.2-0.3-0.5-0.7-1
	c-0.6-0.6-1.1-1-1.7-1.1c-0.6-0.2-1.1-0.1-1.7,0.2l0-0.1c0.2-0.5,0.3-0.8,0.1-1c-0.2-0.3-0.5-0.4-0.8-0.5c-0.3-0.1-0.6-0.2-0.8-0.2
	c-0.3-0.1-0.6-0.1-0.9,0c-0.3,0-0.5,0.2-0.7,0.4c-0.3,0.2-0.6,0.6-0.8,1.2c-0.3,0.5-0.5,1.1-0.7,1.7c-0.2,0.5-0.4,1.3-0.6,2.2
	c-0.2,0.8-0.3,1.5-0.4,2.3c0,0.3,0,0.7,0,1c0,0.3,0.2,0.6,0.4,0.9c0.2,0.2,0.4,0.3,0.7,0.4c0.3,0.2,0.7,0.3,1.1,0.4
	c0.3,0.1,0.7,0.1,1.1,0c0.3,0,0.6-0.2,0.6-0.5c0-0.2,0.1-0.3,0.1-0.5c0-0.2,0-0.3,0-0.5c0.1-1.3,0.3-2.2,0.5-2.8
	c0.5-0.9,1-1.4,1.6-1.3c0.5,0.1,0.9,0.5,1.2,1.2c0.1,0.3,0.1,0.6,0.1,0.9c0,0.5-0.1,1.2-0.4,2c-0.2,0.8-0.4,1.3-0.5,1.5
	c-0.1,0.1-0.1,0.3,0,0.4c0,0.1,0,0.2,0.1,0.3c0.1,0.2,0.4,0.4,0.8,0.7c0.3,0.2,0.7,0.4,1.1,0.4c0.2,0,0.4-0.2,0.5-0.5
	c0.3-0.6,0.5-1.3,0.7-1.9c0.2-0.7,0.4-1.4,0.5-2.1c0.1-0.5,0.2-0.9,0.4-1.2C73.9,83.3,74.2,83.2,74.7,83.3L74.7,83.3L74.7,83.3z
	 M84.4,91.5c-0.3,0.5-0.3,0.8-0.2,1c0.2,0.3,0.4,0.4,0.7,0.5c0.3,0.1,0.6,0.2,0.8,0.2c0.3,0.1,0.6,0.1,0.9,0c0.3,0,0.5-0.2,0.7-0.4
	c0.2-0.2,0.4-0.4,0.6-0.6c0.2-0.2,0.4-0.7,0.8-1.7c0.4-1,0.7-1.9,1-2.8c0.2-0.8,0.4-1.5,0.6-2.3c0.1-0.3,0.1-0.7,0.1-1
	c0-0.3-0.1-0.6-0.3-0.9c-0.2-0.2-0.4-0.3-0.7-0.4c-0.3-0.2-0.7-0.3-1.1-0.4c-0.3-0.1-0.7-0.1-1.1,0c-0.3,0-0.6,0.2-0.7,0.5
	c0,0.2-0.1,0.3-0.1,0.5c0,0.2,0,0.3-0.1,0.5c-0.2,1.3-0.5,2.3-0.9,3.1c-0.4,0.8-0.9,1.1-1.5,1c-0.5-0.1-0.9-0.5-1.1-1.1
	c-0.1-0.3-0.1-0.6-0.1-0.9c0-0.5,0.1-1,0.3-1.5c0.1-0.5,0.3-1,0.6-1.5c0.1-0.1,0.1-0.2,0.2-0.4c0.1-0.1,0.1-0.3,0.1-0.4
	c0-0.1,0-0.2-0.1-0.3c-0.1-0.2-0.4-0.4-0.8-0.7c-0.3-0.2-0.7-0.4-1.1-0.4c-0.2,0-0.4,0.1-0.5,0.2c-0.4,0.5-0.8,1.2-1,2.1
	c-0.2,0.7-0.4,1.5-0.5,2.3c-0.1,0.8-0.1,1.6,0,2.5c0.1,0.8,0.4,1.6,1,2.2c0.5,0.6,1,0.9,1.5,1.1C83.2,91.8,83.9,91.7,84.4,91.5
	L84.4,91.5z M95.4,85.9c0.2-0.5,0.3-0.8,0.1-1c-0.2-0.3-0.5-0.4-0.8-0.5c-0.3-0.1-0.6-0.2-0.8-0.2c-0.3-0.1-0.6-0.1-0.9,0
	c-0.3,0-0.5,0.2-0.7,0.4c-0.5,0.7-0.9,1.3-1.1,1.8c-0.2,0.5-0.3,1-0.5,1.4c-0.1,0.4-0.3,1.1-0.5,2C90.2,90.4,90,91.2,90,92
	c0,0.3,0,0.7,0,1c0,0.3,0.2,0.6,0.4,0.9c0.2,0.2,0.4,0.3,0.7,0.4c0.3,0.2,0.7,0.3,1.1,0.4c0.3,0.1,0.7,0.1,1.1,0
	c0.3,0,0.6-0.2,0.6-0.5c0-0.2,0.1-0.3,0.1-0.5c0-0.2,0-0.3,0-0.5c0.1-1.3,0.2-2.2,0.5-2.9c0.5-1,1.1-1.5,1.6-1.4
	c0.5,0.1,0.9,0.5,1.2,1.3c0.1,0.3,0.1,0.6,0.1,0.9c0,0.5-0.1,1-0.2,1.6c-0.1,0.5-0.2,1-0.5,1.5c-0.1,0.1-0.1,0.2-0.2,0.4
	c-0.1,0.1-0.1,0.3,0,0.4c0,0.1,0.1,0.2,0.1,0.3c0.1,0.2,0.4,0.4,0.8,0.7c0.3,0.2,0.7,0.4,1.1,0.4c0.2,0,0.4-0.1,0.5-0.2
	c0.4-0.5,0.7-1.2,0.8-2.1c0.2-0.8,0.3-1.5,0.3-2.3c0-0.8,0-1.7-0.2-2.5c-0.1-0.8-0.5-1.6-1.1-2.2c-0.6-0.6-1.1-0.9-1.7-1
	c-0.6-0.1-1.1,0-1.5,0.1L95.4,85.9z M109.6,87.7c-0.6-0.1-1.1-0.3-1.7-0.3c-0.7-0.1-1.4-0.1-2.1,0c-0.8,0.1-1.5,0.3-2.2,0.7
	c-1.4,0.7-2.1,1.9-2.2,3.6c-0.1,1,0.1,2.1,0.5,3c0.2,0.5,0.5,1,0.9,1.4c0.4,0.4,0.8,0.8,1.2,1.1c0.5,0.4,1.1,0.7,1.8,0.9
	c0.5,0.2,1,0.3,1.5,0.4c0.5,0.1,1.1,0.1,1.6,0c0.2,0,0.4-0.1,0.6-0.2c0.4-0.1,0.8-0.3,1.1-0.6c0.4-0.2,0.5-0.6,0.3-1
	c-0.4-0.8-1-1-1.7-0.8c-0.6,0.2-1.2,0.3-1.8,0.2c-0.7-0.1-1.4-0.4-1.9-0.8c-0.6-0.4-0.9-1-1-1.7c-0.1-0.9,0.1-1.6,0.5-2
	c0.4-0.4,1-0.7,1.6-0.8c0.6-0.1,1.3-0.1,1.9,0.1c0.5,0.1,1,0.3,1.4,0.5c0.1,0.1,0.3,0.2,0.5,0.3c0.1,0.1,0.3,0.2,0.5,0.2
	c0.2,0.1,0.5-0.1,0.8-0.4c0.2-0.2,0.4-0.5,0.5-0.8c0.1-0.3,0.2-0.6,0.3-0.9c0.1-0.3,0-0.5-0.3-0.8c-0.3-0.3-0.6-0.5-1-0.7
	C110.7,88,110.2,87.8,109.6,87.7L109.6,87.7z M118.7,87.9c0.2-0.5,0.2-0.8,0.1-1c-0.2-0.3-0.5-0.4-0.8-0.5c-0.3-0.1-0.6-0.2-0.8-0.2
	c-0.3-0.1-0.6-0.1-0.9,0c-0.2,0-0.5,0.2-0.6,0.4c-0.3,0.3-0.5,0.7-0.7,1.1c-0.3,0.7-0.6,1.4-0.8,2.2c-0.3,0.9-0.6,1.8-0.8,2.8
	c-0.3,1-0.4,2-0.6,2.9c-0.1,0.8-0.2,1.6-0.2,2.4c0,0.4,0,0.7,0.1,1.1c0.1,0.3,0.2,0.7,0.4,0.9c0.2,0.2,0.4,0.3,0.7,0.4
	c0.3,0.2,0.7,0.3,1.1,0.4c0.3,0.1,0.7,0.1,1,0c0.3,0,0.5-0.3,0.6-0.6c0-0.2,0.1-0.4,0-0.6c0-0.2,0-0.4,0-0.5c0-1.3,0.1-2.3,0.3-2.9
	c0.5-1.1,0.9-1.6,1.5-1.5s0.9,0.5,1.2,1.4c0.1,0.3,0.2,0.6,0.2,0.9c0,0.5,0,1.1,0,1.6c-0.1,0.5-0.2,1.1-0.4,1.5
	c0,0.1-0.1,0.3-0.1,0.4c0,0.1,0,0.3,0,0.4c0,0.1,0.1,0.2,0.1,0.3c0.1,0.2,0.4,0.4,0.8,0.7c0.3,0.2,0.7,0.4,1.1,0.4
	c0.2,0,0.4-0.1,0.5-0.2c0.3-0.5,0.6-1.2,0.7-2.2c0.1-0.8,0.2-1.6,0.1-2.3c0-0.9-0.1-1.7-0.3-2.5c-0.2-0.8-0.6-1.6-1.2-2.3
	c-0.6-0.6-1.3-1-2.1-1.3c-0.4-0.1-0.7-0.2-1.1-0.2C117.8,90.1,118.2,89,118.7,87.9L118.7,87.9L118.7,87.9z M127.4,93.4
	c-0.4-0.1-0.8-0.1-1.2,0c-0.5,0.1-0.9,0.2-1.3,0.5c-0.3,0.3-0.5,0.5-0.5,0.8c-0.1,0.4,0.2,1.5,0.6,3.3s0.8,3.2,1.2,4
	c-0.8,0.9-1.6,1.5-2.3,1.9c-0.2,0.1-0.3,0.2-0.5,0.3c-0.2,0.1-0.3,0.2-0.4,0.3c-0.4,0.5-0.3,1,0.4,1.7s1.2,1,1.6,1.1
	c0.3,0.1,0.7,0.1,1-0.1c0.3-0.1,0.6-0.3,0.9-0.4c0.3-0.1,0.6-0.3,0.9-0.6c2.4-2.1,4.1-3.8,5.1-5.2c1-1.4,1.6-2.3,1.9-2.8
	c0.2-0.4,0.4-0.8,0.5-1.2c0.1-0.2,0-0.5-0.1-0.7c-0.1-0.3-0.3-0.5-0.5-0.7c-0.2-0.2-0.5-0.4-0.7-0.6c-0.2-0.2-0.4-0.3-0.6-0.3
	c-0.3,0-0.6,0.1-0.8,0.5c-0.9,1.2-2,2.7-3.4,4.4l-1.1-5.2C127.9,93.7,127.6,93.5,127.4,93.4z"/>
</svg>
