<?xml version="1.0" encoding="utf-8"?>
<!-- Generator: Adobe Illustrator 24.1.0, SVG Export Plug-In . SVG Version: 6.00 Build 0)  -->
<svg version="1.1" id="Calque_1" xmlns="http://www.w3.org/2000/svg" xmlns:xlink="http://www.w3.org/1999/xlink" x="0px" y="0px"
	 viewBox="0 0 50 50" style="enable-background:new 0 0 50 50;" xml:space="preserve">
<style type="text/css">
	.st0{fill:#FF0054;}
	.st1{fill:#FFFFFF;}
</style>
<path class="st0" d="M39.2,1.6h-28c-1.3,0-2.5,1-2.6,2.4L7.8,44.9c-0.1,1.5-0.2,1.8,0.9,2.5h32.1c0.7,0,1.3-0.5,1.3-1.2
	c0-0.6,0-1.1-0.1-2v-0.1L41.8,4C41.7,2.6,40.6,1.6,39.2,1.6z"/>
<path id="munchy" class="st1" d="M16,21c0.2,0,0.4,0.1,0.5,0.3c0,0.1,0.1,0.2,0.1,0.3c0,0.2,0.1,0.4,0.1,0.6s0,0.4,0,0.6v0.1V23
	c0,0,0,0.1,0.1,0.1c0.1,0.1,0.2,0.1,0.3,0.2c0.1,0,0.3,0.1,0.4,0c0.1,0,0.1-0.1,0.1-0.1c0.1-0.2,0.1-0.5,0.1-0.8s0-0.6-0.1-0.8
	c0-0.3-0.1-0.6-0.3-0.8c-0.1-0.3-0.3-0.5-0.6-0.7c-0.2-0.2-0.5-0.2-0.7-0.2c-0.2,0-0.4,0-0.6,0.2c-0.2,0.1-0.3,0.2-0.4,0.4
	c0-0.1-0.2-0.2-0.3-0.3C14.5,20,14.2,20,14,20s-0.4,0.1-0.6,0.2l0,0c0-0.2,0-0.3,0-0.4c-0.1-0.1-0.2-0.1-0.3-0.1s-0.2,0-0.3,0
	s-0.2,0-0.3,0.1c-0.1,0-0.1,0.1-0.2,0.2c-0.1,0.1-0.1,0.3-0.2,0.5c0,0.2-0.1,0.4-0.1,0.6s0,0.5,0,0.8s0,0.6,0.1,0.8
	c0,0.1,0,0.2,0.1,0.4c0,0.1,0.1,0.2,0.2,0.3c0.1,0,0.2,0.1,0.3,0.1s0.3,0,0.4,0c0.1,0,0.2,0,0.4-0.1c0.1,0,0.2-0.1,0.2-0.2
	s0-0.1,0-0.2s0-0.1,0-0.2c-0.1-0.5-0.1-0.8-0.1-1c0.1-0.4,0.2-0.6,0.4-0.6s0.4,0.1,0.5,0.3c0,0.1,0.1,0.2,0.1,0.3
	c0,0.2,0.1,0.4,0,0.7c0,0.3,0,0.5,0,0.6v0.1c0,0,0,0.1,0.1,0.1c0.1,0.1,0.2,0.1,0.3,0.2c0.1,0,0.3,0.1,0.4,0c0.1,0,0.1-0.1,0.1-0.2
	c0-0.2,0.1-0.5,0.1-0.7c0-0.3,0-0.5,0-0.8c0-0.2,0-0.3,0-0.4C15.7,21.1,15.8,21,16,21L16,21L16,21z M20.1,23c0,0.2,0,0.3,0,0.4
	c0.1,0.1,0.2,0.1,0.3,0.1c0.1,0,0.2,0,0.3,0c0.1,0,0.2,0,0.3-0.1c0.1,0,0.2-0.1,0.2-0.2c0.1-0.1,0.1-0.2,0.2-0.3
	c0-0.1,0.1-0.3,0.1-0.7c0-0.4,0.1-0.7,0.1-1.1c0-0.3,0-0.6,0-0.8c0-0.1,0-0.2-0.1-0.4c0-0.1-0.1-0.2-0.2-0.3c-0.1,0-0.2-0.1-0.3-0.1
	c-0.1,0-0.3,0-0.4,0s-0.3,0-0.4,0.1c-0.1,0-0.2,0.1-0.2,0.2s0,0.1,0,0.2s0,0.1,0,0.2c0.1,0.5,0,0.8,0,1.1c0,0.5-0.1,0.7-0.3,0.7
	c-0.2,0-0.4-0.1-0.5-0.3c0-0.1-0.1-0.2-0.1-0.3c0-0.2,0-0.4,0-0.6s0-0.4,0.1-0.6v-0.1V20v-0.1c-0.1-0.1-0.2-0.1-0.3-0.2
	c-0.1,0-0.3-0.1-0.4,0c-0.1,0-0.1,0.1-0.2,0.1C18.1,20,18,20.3,18,20.6c0,0.3,0,0.6,0,0.8c0,0.3,0.1,0.6,0.2,0.8
	c0.1,0.3,0.3,0.5,0.5,0.7s0.4,0.2,0.6,0.2C19.7,23.2,19.9,23.1,20.1,23L20.1,23z M23.4,20c0-0.2,0-0.3,0-0.4
	c-0.1-0.1-0.2-0.1-0.3-0.1c-0.1,0-0.2,0-0.3,0c-0.1,0-0.2,0-0.3,0.1c-0.1,0-0.1,0.1-0.2,0.2c-0.1,0.3-0.2,0.5-0.2,0.7s0,0.4,0,0.5
	s0,0.4,0,0.7c0,0.3,0,0.6,0.1,0.8c0,0.1,0,0.2,0.1,0.4c0,0.1,0.1,0.2,0.2,0.3c0.1,0,0.2,0.1,0.3,0.1c0.1,0,0.3,0,0.4,0
	s0.2,0,0.4-0.1c0.1,0,0.2-0.1,0.2-0.2s0-0.1,0-0.2s0-0.1,0-0.2c-0.1-0.5-0.1-0.8-0.1-1c0.1-0.4,0.2-0.6,0.4-0.6
	c0.2,0,0.4,0.1,0.5,0.3c0,0.1,0.1,0.2,0.1,0.3c0,0.2,0.1,0.4,0.1,0.6s0,0.4,0,0.6v0.1V23c0,0,0,0.1,0.1,0.1c0.1,0.1,0.2,0.1,0.3,0.2
	c0.1,0,0.3,0.1,0.4,0c0.1,0,0.1-0.1,0.1-0.1c0.1-0.2,0.1-0.5,0.1-0.8s0-0.6-0.1-0.8c-0.1-0.3-0.1-0.6-0.3-0.8
	c-0.1-0.3-0.3-0.5-0.6-0.7c-0.2-0.2-0.5-0.2-0.7-0.2C23.8,19.9,23.6,20,23.4,20L23.4,20z M28.5,19.4c-0.2,0-0.4,0-0.6,0
	c-0.3,0-0.5,0.1-0.7,0.2c-0.3,0.1-0.5,0.2-0.7,0.4c-0.4,0.4-0.5,0.9-0.4,1.4c0.1,0.4,0.2,0.7,0.5,1c0.1,0.2,0.3,0.3,0.4,0.4
	c0.2,0.1,0.3,0.2,0.5,0.3c0.2,0.1,0.5,0.1,0.7,0.2c0.2,0,0.4,0,0.6,0s0.4-0.1,0.6-0.2c0.1,0,0.1-0.1,0.2-0.1
	c0.1-0.1,0.2-0.2,0.3-0.3c0.1-0.1,0.1-0.3,0-0.4c-0.2-0.2-0.4-0.3-0.7-0.1c-0.2,0.1-0.4,0.2-0.6,0.2c-0.3,0-0.5,0-0.8-0.1
	c-0.2-0.1-0.4-0.3-0.5-0.5c-0.1-0.3-0.1-0.6,0-0.8c0.1-0.2,0.3-0.3,0.5-0.4s0.4-0.1,0.7-0.1c0.2,0,0.4,0,0.5,0s0.1,0,0.2,0.1
	c0.1,0,0.1,0,0.2,0s0.2-0.1,0.2-0.2c0.1-0.1,0.1-0.2,0.1-0.3c0-0.1,0-0.2,0-0.3c0-0.1-0.1-0.2-0.2-0.2c-0.1-0.1-0.3-0.1-0.4-0.1
	C28.9,19.4,28.7,19.4,28.5,19.4L28.5,19.4z M31.6,18.6c0-0.2,0-0.3-0.1-0.4s-0.2-0.1-0.3-0.1c-0.1,0-0.2,0-0.3,0
	c-0.1,0-0.2,0-0.3,0.1c-0.1,0-0.1,0.1-0.2,0.2s-0.1,0.3-0.1,0.5c0,0.3-0.1,0.5-0.1,0.8s0,0.7,0,1.1s0,0.7,0.1,1.1
	c0,0.3,0.1,0.6,0.1,0.8c0,0.1,0.1,0.2,0.1,0.4c0,0.1,0.1,0.2,0.2,0.3c0.1,0,0.2,0.1,0.3,0.1c0.1,0,0.3,0,0.4,0s0.2,0,0.4-0.1
	c0.1,0,0.2-0.1,0.1-0.2c0-0.1,0-0.1,0-0.2s0-0.1,0-0.2c-0.1-0.5-0.2-0.8-0.2-1c0.1-0.4,0.2-0.6,0.4-0.7c0.2,0,0.4,0.1,0.5,0.4
	c0.1,0.1,0.1,0.2,0.1,0.3c0.1,0.2,0.1,0.4,0.1,0.6s0,0.4,0,0.6v0.1v0.1c0,0,0,0.1,0.1,0.1c0.1,0.1,0.2,0.1,0.4,0.2
	c0.1,0,0.3,0.1,0.4,0c0.1,0,0.1-0.1,0.1-0.1c0.1-0.2,0.1-0.5,0-0.8c0-0.3-0.1-0.6-0.2-0.8c-0.1-0.3-0.2-0.6-0.3-0.8
	c-0.1-0.3-0.4-0.5-0.6-0.7c-0.2-0.2-0.5-0.2-0.8-0.2c-0.1,0-0.3,0-0.4,0C31.5,19.5,31.6,19.1,31.6,18.6L31.6,18.6L31.6,18.6z
	 M35.1,19.8c-0.1,0-0.3,0-0.4,0.1c-0.2,0.1-0.3,0.2-0.4,0.3c-0.1,0.1-0.1,0.2-0.1,0.3c0,0.1,0.2,0.5,0.5,1.1s0.6,1,0.8,1.3
	c-0.2,0.4-0.4,0.7-0.6,0.9l-0.1,0.1L34.7,24c-0.1,0.2,0,0.4,0.3,0.5c0.3,0.2,0.5,0.2,0.7,0.2c0.1,0,0.2,0,0.3-0.1s0.2-0.1,0.3-0.2
	s0.2-0.2,0.3-0.3c0.6-0.9,1.1-1.7,1.3-2.3c0.2-0.6,0.4-1,0.4-1.2c0-0.1,0.1-0.3,0.1-0.5c0-0.1,0-0.2-0.1-0.2
	c-0.1-0.1-0.2-0.2-0.2-0.2c-0.1-0.1-0.2-0.1-0.3-0.2s-0.2-0.1-0.2-0.1c-0.1,0-0.2,0.1-0.2,0.3c-0.2,0.5-0.5,1.1-0.8,1.8L35.4,20
	C35.3,19.8,35.2,19.8,35.1,19.8z"/>
<path class="st1" d="M29.4,6.6h-8.5c-0.6,0-1.1-0.5-1.1-1.1l0,0c0-0.6,0.5-1.1,1.1-1.1h8.5c0.6,0,1.1,0.5,1.1,1.1l0,0
	C30.4,6.1,30,6.6,29.4,6.6z"/>
</svg>
