<svg xmlns="http://www.w3.org/2000/svg" width="203.129" height="105.416" viewBox="0 0 203.129 105.416">
  <g id="Groupe_16729" data-name="Groupe 16729" transform="translate(0 0.034)">
    <path id="Background" d="M55.951,85.144a8.515,8.515,0,0,1,0-17.029H8.515a8.514,8.514,0,1,1,0-17.028H57.168a8.515,8.515,0,0,0,0-17.029H26.759a8.514,8.514,0,0,1,0-17.028H75.413A8.515,8.515,0,0,1,75.413,0h119.2a8.515,8.515,0,0,1,0,17.029H145.96a8.514,8.514,0,1,1,0,17.028h26.76a8.515,8.515,0,0,1,0,17.029H160.345c-5.929,0-10.735,3.812-10.735,8.514s7.3,8.515,7.3,8.515a8.515,8.515,0,0,1,0,17.029ZM186.1,42.572a8.515,8.515,0,1,1,8.515,8.515A8.514,8.514,0,0,1,186.1,42.572Z" transform="translate(0 0)" fill="#fff7f9"/>
    <ellipse id="Oval" cx="40.747" cy="40.747" rx="40.747" ry="40.747" transform="translate(48.654 1.216)" fill="#ffe6ee" stroke="#fe8aa7" stroke-miterlimit="10" stroke-width="2.5"/>
    <path id="Oval-2" data-name="Oval" d="M25.7,63.851a42.9,42.9,0,0,0,6.529.616A32.275,32.275,0,1,0,8.13,53.635" transform="translate(57.168 9.731)" fill="#fff" stroke="#fe8aa7" stroke-linecap="round" stroke-miterlimit="10" stroke-width="2.5"/>
    <path id="Oval-3" data-name="Oval" d="M0,0A32.2,32.2,0,0,0,8.762,5.074" transform="translate(69.085 66.989)" fill="none" stroke="#fe8aa7" stroke-linecap="round" stroke-miterlimit="10" stroke-width="2.5"/>
    <path id="Oval-4" data-name="Oval" d="M23.11,0A23.085,23.085,0,0,0,0,23.111" transform="translate(66.899 19.461)" fill="none" stroke="#fff2f6" stroke-linecap="round" stroke-miterlimit="10" stroke-width="2.5"/>
    <path id="Path_4" data-name="Path 4" d="M0,0,7.3,7.3" transform="translate(122.85 74.197)" fill="none" stroke="#fe8aa7" stroke-linecap="round" stroke-miterlimit="10" stroke-width="2.5"/>
    <g id="Rectangle" transform="translate(125.361 76.707)" fill="#ffe6ee" stroke-miterlimit="10">
      <path d="M 21.25976753234863 27.42537498474121 C 19.61288642883301 27.42537498474121 18.0645866394043 26.7840461730957 16.90007781982422 25.61952590942383 L 3.416597366333008 12.13601589202881 C 1.012657284736633 9.732065200805664 1.012657284736633 5.820555686950684 3.416597366333008 3.416605472564697 C 4.581117153167725 2.252085447311401 6.129417419433594 1.610755443572998 7.776287078857422 1.610755443572998 C 9.423157691955566 1.610755443572998 10.97145748138428 2.252085447311401 12.13596725463867 3.416605472564697 L 25.61945724487305 16.90010452270508 C 28.02339744567871 19.30405616760254 28.02339744567871 23.215576171875 25.61944770812988 25.61952590942383 C 24.45493698120117 26.7840461730957 22.90663719177246 27.42537498474121 21.25976753234863 27.42537498474121 Z" stroke="none"/>
      <path d="M 7.776287078857422 2.860755920410156 C 6.463296890258789 2.860755920410156 5.228897094726562 3.372055053710938 4.300487518310547 4.30047607421875 C 2.383916854858398 6.217056274414062 2.383907318115234 9.335556030273438 4.300487518310547 11.25213623046875 L 17.78395843505859 24.73563575744629 C 18.71238708496094 25.66406631469727 19.94677734375 26.17537498474121 21.25975799560547 26.17537498474121 C 22.5727367401123 26.17537498474121 23.80712699890137 25.66406631469727 24.73556709289551 24.73562622070312 C 25.66398811340332 23.80720520019531 26.17529678344727 22.57280540466309 26.17529678344727 21.25981521606445 C 26.17529678344727 19.94682502746582 25.66398811340332 18.71242523193359 24.73555755615234 17.78398513793945 L 11.2520866394043 4.30047607421875 C 10.32367706298828 3.372055053710938 9.089277267456055 2.860755920410156 7.776287078857422 2.860755920410156 M 7.776287078857422 0.3607521057128906 C 9.674087524414062 0.3607521057128906 11.5718879699707 1.084739685058594 13.01985740661621 2.53271484375 L 26.50332641601562 16.01622581481934 C 29.39928817749023 18.91218566894531 29.39928817749023 23.60744476318359 26.50332641601562 26.50339508056641 C 25.05535697937012 27.95137977600098 23.15756034851074 28.67537307739258 21.25976181030273 28.67537307739258 C 19.36196136474609 28.67537307739258 17.46416091918945 27.95137977600098 16.01618766784668 26.50339508056641 L 2.532716751098633 13.01989555358887 C -0.3632335662841797 10.12394523620605 -0.3632335662841797 5.428674697875977 2.532716751098633 2.53271484375 C 3.980688095092773 1.084739685058594 5.878486633300781 0.3607521057128906 7.776287078857422 0.3607521057128906 Z" stroke="none" fill="#fe8aa7"/>
    </g>
    <path id="Line" d="M0,0,13.38,13.38" transform="translate(135.014 82.711)" fill="none" stroke="#fff" stroke-linecap="round" stroke-miterlimit="10" stroke-width="2.5"/>
    <path id="Line_8" data-name="Line 8" d="M3.255,9.46h0ZM26.7,0h0ZM0,0H0Z" transform="translate(141.489 32.841)" fill="none" stroke="#fe8aa7" stroke-linecap="round" stroke-linejoin="round" stroke-miterlimit="10" stroke-width="2.5"/>
    <path id="Line_8-2" data-name="Line 8" d="M28.853,10.677h0ZM12.218,0h0ZM0,0H0Z" transform="translate(6.421 58.384)" fill="none" stroke="#fe8aa7" stroke-linecap="round" stroke-linejoin="round" stroke-miterlimit="10" stroke-width="2.5"/>
  </g>
</svg>
